<?xml version="1.0" encoding="iso-8859-1"?>
<!-- Generator: Adobe Illustrator 17.1.0, SVG Export Plug-In . SVG Version: 6.00 Build 0)  -->
<!DOCTYPE svg PUBLIC "-//W3C//DTD SVG 1.1//EN" "http://www.w3.org/Graphics/SVG/1.1/DTD/svg11.dtd">
<svg version="1.1" id="Capa_1" xmlns="http://www.w3.org/2000/svg" xmlns:xlink="http://www.w3.org/1999/xlink" x="0px" y="0px"
	 viewBox="0 0 196.797 196.797" style="enable-background:new 0 0 196.797 196.797;" xml:space="preserve">
<path d="M98.398,196.797c-14.117,0-27.551-2.989-39.699-8.366c-0.207-0.055-0.4-0.143-0.575-0.257
	c-16.648-7.499-30.854-19.498-41.051-34.437c-0.193-0.188-0.348-0.416-0.453-0.668C6.126,137.422,0,118.612,0,98.398
	C0,58.62,23.728,24.278,57.772,8.783c0.351-0.366,0.838-0.599,1.38-0.616C71.181,2.915,84.457,0,98.398,0
	c54.257,0,98.398,44.141,98.398,98.398c0,20.214-6.126,39.023-16.621,54.67c-0.104,0.253-0.26,0.48-0.453,0.668
	C161.993,179.713,132.153,196.797,98.398,196.797z M70.206,188.498c8.908,2.793,18.376,4.299,28.193,4.299
	s19.285-1.505,28.193-4.299H70.206z M59.703,184.498h77.236c0.048,0,0.096,0.002,0.144,0.005
	c14.892-6.716,27.741-17.188,37.335-30.197H40.048c10.291,10.384,20.995,16.93,21.157,17.028c0.945,0.572,1.248,1.801,0.676,2.747
	s-1.802,1.248-2.747,0.676c-0.743-0.449-13.422-8.205-24.659-20.451H22.379C31.97,167.311,44.818,177.782,59.703,184.498z
	 M36.291,150.306h140.92c9.505-14.383,15.181-31.504,15.564-49.907H17.402c0.68,10.024,2.74,23.679,8.526,35.077
	C28.662,140.859,32.339,145.855,36.291,150.306z M19.585,150.306h11.416c-3.263-3.981-6.268-8.348-8.639-13.02
	c-6.194-12.2-8.336-26.494-9.009-36.888H4.021C4.405,118.801,10.081,135.922,19.585,150.306z M17.191,96.398h175.585
	c-0.378-18.118-5.886-34.995-15.127-49.239H97.665c0.357,2.278,0.472,4.637,0.333,7.047c-0.517,8.957-4.48,17.569-11.16,24.249
	c-6.68,6.68-15.292,10.644-24.249,11.16c-9.049,0.522-17.357-2.523-23.408-8.574c-6.051-6.05-9.096-14.363-8.574-23.408
	c0.207-3.58,0.964-7.106,2.225-10.475H19.148C9.907,61.403,4.399,78.28,4.021,96.398h9.132c-0.208-5.942,0.049-9.93,0.079-10.362
	c0.076-1.102,1.019-1.921,2.132-1.857c1.102,0.076,1.934,1.03,1.858,2.132C17.215,86.416,16.962,90.386,17.191,96.398z
	 M67.99,26.168c-0.578,0-1.159,0.017-1.744,0.05c-7.977,0.46-15.666,4.01-21.651,9.995c-5.985,5.985-9.535,13.674-9.995,21.651
	c-0.455,7.89,2.176,15.116,7.409,20.349c5.233,5.233,12.464,7.861,20.349,7.409c7.977-0.46,15.666-4.01,21.651-9.995
	c12.292-12.292,13.453-31.134,2.586-42C81.751,28.783,75.197,26.168,67.99,26.168z M96.764,43.159h78.142
	c-9.706-13.406-22.838-24.167-38.107-30.993h-76.8c-15.27,6.826-28.402,17.587-38.107,30.993h12.714
	c1.823-3.541,4.231-6.843,7.162-9.774c6.68-6.68,15.292-10.644,24.249-11.16c9.044-0.527,17.357,2.522,23.408,8.574
	C92.895,34.271,95.377,38.487,96.764,43.159z M70.633,8.166h55.531C117.383,5.458,108.057,4,98.398,4S79.414,5.458,70.633,8.166z
	 M64.302,57.92h-0.436c-1.104,0-2-0.896-2-2s0.896-2,2-2h0.436c1.104,0,2,0.896,2,2S65.406,57.92,64.302,57.92z"/>
<g>
</g>
<g>
</g>
<g>
</g>
<g>
</g>
<g>
</g>
<g>
</g>
<g>
</g>
<g>
</g>
<g>
</g>
<g>
</g>
<g>
</g>
<g>
</g>
<g>
</g>
<g>
</g>
<g>
</g>
</svg>
