<?xml version="1.0"?>
<svg xmlns="http://www.w3.org/2000/svg" xmlns:xlink="http://www.w3.org/1999/xlink" id="GD001" viewBox="0 0 512 512" width="512" height="512"><defs><linearGradient id="New_Gradient_Swatch_2" x1="252.69" y1="184.835" x2="265.65" y2="463.471" gradientUnits="userSpaceOnUse"><stop offset="0" stop-color="#fc5c7d"/><stop offset="0.129" stop-color="#f35e85"/><stop offset="0.343" stop-color="#d9659b"/><stop offset="0.616" stop-color="#b070bf"/><stop offset="0.934" stop-color="#777ff0"/><stop offset="1" stop-color="#6a82fb"/></linearGradient></defs><path d="M496,226.165V40a24,24,0,0,0-48,0V184H432a24.027,24.027,0,0,0-24,24v14.268l-63.983-4.574A95.986,95.986,0,0,0,168,217.655V176H152v42.836l-16,1.144V200H120v21.124l-16,1.144V208a24.027,24.027,0,0,0-24-24H64V40a24,24,0,0,0-48,0V226.165A16,16,0,0,0,8,240v32a16,16,0,0,0,8,13.835V472a24,24,0,0,0,48,0V328H80a24.027,24.027,0,0,0,24-24V289.732l63.983,4.574a96.186,96.186,0,0,0,14.749,23.649l-12.389,12.388,11.314,11.314,12.388-12.389a96.113,96.113,0,0,0,26.017,15.746l4.047,24.3A8,8,0,0,0,232,376h48a8,8,0,0,0,7.891-6.686l4.047-24.3a96.113,96.113,0,0,0,26.017-15.746l12.388,12.389,11.314-11.314-12.389-12.388a96.186,96.186,0,0,0,14.749-23.649L408,289.732V304a24.027,24.027,0,0,0,24,24h16V472a24,24,0,0,0,48,0V285.835A16,16,0,0,0,504,272V240A16,16,0,0,0,496,226.165ZM488,272H456V240h32l.01,32ZM472,32a8.009,8.009,0,0,1,8,8V224H464V40A8.009,8.009,0,0,1,472,32ZM24,272V240H56v32ZM40,32a8.009,8.009,0,0,1,8,8V224H32V40A8.009,8.009,0,0,1,40,32Zm0,448a8.009,8.009,0,0,1-8-8V288H48V472A8.009,8.009,0,0,1,40,480ZM88,304a8.009,8.009,0,0,1-8,8H64V288a8,8,0,0,0,8-8V232a8,8,0,0,0-8-8V200H80a8.009,8.009,0,0,1,8,8Zm16-30.308V238.308l58.517-4.183A95.476,95.476,0,0,0,160.336,248H136v16h24.336a95.476,95.476,0,0,0,2.181,13.875ZM176,256a79.953,79.953,0,0,1,130.6-61.913l-17.08,17.08a55.972,55.972,0,0,0-78.352,78.352l-17.08,17.08A79.623,79.623,0,0,1,176,256Zm80,9.625-6.806-2.819L246.375,256l2.819-6.806L256,246.375l6.806,2.819L265.625,256l-2.819,6.806Zm11.052-31.991L264,232.37V216.805a39.756,39.756,0,0,1,14.042,5.839ZM248,232.37l-3.052,1.264-10.99-10.99A39.756,39.756,0,0,1,248,216.805Zm-25.356,1.588,10.99,10.99L232.37,248H216.805A39.756,39.756,0,0,1,222.644,233.958ZM232.37,264l1.264,3.052-10.99,10.99A39.756,39.756,0,0,1,216.805,264Zm12.578,14.366L248,279.63V295.2a39.756,39.756,0,0,1-14.042-5.839ZM264,279.63l3.052-1.264,10.99,10.99A39.756,39.756,0,0,1,264,295.2Zm14.366-12.578L279.63,264H295.2a39.756,39.756,0,0,1-5.839,14.042ZM279.63,248l-1.264-3.052,10.99-10.99A39.756,39.756,0,0,1,295.2,248Zm-6.408,112H238.778l-1.643-9.866a96.294,96.294,0,0,0,37.73,0ZM256,336a79.623,79.623,0,0,1-50.6-18.087l17.08-17.08a55.889,55.889,0,0,0,67.038,0l17.08,17.08A79.623,79.623,0,0,1,256,336Zm61.913-29.4-17.08-17.08a55.889,55.889,0,0,0,0-67.038l17.08-17.08a79.82,79.82,0,0,1,0,101.2Zm31.57-28.724A95.476,95.476,0,0,0,351.664,264H376V248H351.664a95.476,95.476,0,0,0-2.181-13.875L408,238.308v35.384ZM432,312a8.009,8.009,0,0,1-8-8V208a8.009,8.009,0,0,1,8-8h16v24a8,8,0,0,0-8,8v48a8,8,0,0,0,8,8v24Zm40,168a8.009,8.009,0,0,1-8-8V288h16V472A8.009,8.009,0,0,1,472,480Z" style="fill:url(#New_Gradient_Swatch_2)"/></svg>
