<?xml version="1.0"?>
<svg xmlns="http://www.w3.org/2000/svg" xmlns:xlink="http://www.w3.org/1999/xlink" id="GD001" viewBox="0 0 512 512" width="512" height="512"><defs><linearGradient id="New_Gradient_Swatch_2" x1="361.241" y1="108.345" x2="374.201" y2="386.981" gradientUnits="userSpaceOnUse"><stop offset="0" stop-color="#fc5c7d"/><stop offset="0.129" stop-color="#f35e85"/><stop offset="0.343" stop-color="#d9659b"/><stop offset="0.616" stop-color="#b070bf"/><stop offset="0.934" stop-color="#777ff0"/><stop offset="1" stop-color="#6a82fb"/></linearGradient><linearGradient id="New_Gradient_Swatch_2-2" x1="291.908" y1="111.569" x2="304.868" y2="390.205" xlink:href="#New_Gradient_Swatch_2"/><linearGradient id="New_Gradient_Swatch_2-3" x1="362.061" y1="108.306" x2="375.021" y2="386.942" xlink:href="#New_Gradient_Swatch_2"/><linearGradient id="New_Gradient_Swatch_2-4" x1="73.569" y1="121.725" x2="86.528" y2="400.361" xlink:href="#New_Gradient_Swatch_2"/><linearGradient id="New_Gradient_Swatch_2-5" x1="71.341" y1="121.828" x2="84.301" y2="400.464" xlink:href="#New_Gradient_Swatch_2"/><linearGradient id="New_Gradient_Swatch_2-6" x1="37.368" y1="123.408" x2="50.328" y2="402.044" xlink:href="#New_Gradient_Swatch_2"/><linearGradient id="New_Gradient_Swatch_2-7" x1="452.47" y1="104.101" x2="465.43" y2="382.737" xlink:href="#New_Gradient_Swatch_2"/><linearGradient id="New_Gradient_Swatch_2-8" x1="246.449" y1="113.684" x2="259.408" y2="392.32" xlink:href="#New_Gradient_Swatch_2"/><linearGradient id="New_Gradient_Swatch_2-9" x1="440.774" y1="104.645" x2="453.734" y2="383.281" xlink:href="#New_Gradient_Swatch_2"/><linearGradient id="New_Gradient_Swatch_2-10" x1="438.546" y1="104.749" x2="451.506" y2="383.385" xlink:href="#New_Gradient_Swatch_2"/></defs><path d="M357.6,217.712a103.882,103.882,0,0,1,2.14,14.853l15.96-1.13a119.971,119.971,0,0,0-2.471-17.147Z" style="fill:url(#New_Gradient_Swatch_2)"/><path d="M324.727,141.676a119.939,119.939,0,0,0-104.376-16.27l4.761,15.276a104.133,104.133,0,0,1,128.037,62.183l14.939-5.73A120.029,120.029,0,0,0,324.727,141.676Z" style="fill:url(#New_Gradient_Swatch_2-2)"/><rect x="352" y="56" width="16" height="16" style="fill:url(#New_Gradient_Swatch_2-3)"/><path d="M72,112A24,24,0,1,0,48,88,24.027,24.027,0,0,0,72,112Zm0-32a8,8,0,1,1-8,8A8.009,8.009,0,0,1,72,80Z" style="fill:url(#New_Gradient_Swatch_2-4)"/><rect x="64" y="128" width="16" height="16" style="fill:url(#New_Gradient_Swatch_2-5)"/><rect x="40" y="344" width="16" height="16" style="fill:url(#New_Gradient_Swatch_2-6)"/><rect x="456" y="344" width="16" height="16" style="fill:url(#New_Gradient_Swatch_2-7)"/><path d="M504,384V344a32.036,32.036,0,0,0-32-32V209.642l23.353-54.491A7.993,7.993,0,0,0,496,152V64a8,8,0,0,0-2.343-5.657l-24-24A8,8,0,0,0,464,32H416a8,8,0,0,0-5.657,2.343L396.661,48.025A39.941,39.941,0,0,0,351.16,25L340.649,17.49A8,8,0,0,0,336,16H176a8,8,0,0,0-4.65,1.49L120.865,53.551,101.657,34.343A8,8,0,0,0,96,32H48a8,8,0,0,0-5.657,2.343l-24,24A8,8,0,0,0,16,64v88a7.993,7.993,0,0,0,.647,3.151L40,209.642V312A32.036,32.036,0,0,0,8,344v40H24V344a16.019,16.019,0,0,1,16-16H72v38.04a145.145,145.145,0,0,0-33,19.713c-21.128,16.9-29.8,33.952-30.157,34.669l14.3,7.18c.076-.149,7.829-15.136,26.5-29.871,17.573-13.866,38.481-22.92,62.409-27.081,1,25.3,16.332,48.757,43.431,66.292A149.242,149.242,0,0,0,176.085,448H168a40.045,40.045,0,0,0-40,40v8h16v-8a24.027,24.027,0,0,1,24-24h80v32h16V464h80a24.027,24.027,0,0,1,24,24v8h16v-8a40.045,40.045,0,0,0-40-40h-8.085a149.242,149.242,0,0,0,20.6-11.058c27.1-17.535,42.43-40.989,43.431-66.292,23.928,4.161,44.836,13.215,62.409,27.081,18.675,14.735,26.428,29.722,26.492,29.847l14.31-7.156c-.358-.717-9.029-17.766-30.157-34.669a145.145,145.145,0,0,0-33-19.713V328h32a16.019,16.019,0,0,1,16,16v40ZM419.314,48h41.372L480,67.314v83.044L458.725,200H435.6a183.207,183.207,0,0,0-16.839-45.851l.583-.973a23.97,23.97,0,0,0-3.6-29.323L400,108.116v-40.8ZM88,296V264h16v32Zm49.207-174.793A168.04,168.04,0,0,1,347.8,99.276l-15.506,9.3A151.056,151.056,0,0,0,256,88c-83.813,0-152,68.187-152,152v8H88v-8A166.9,166.9,0,0,1,137.207,121.207Zm267.216,13.96a7.992,7.992,0,0,1,1.2,9.777l-14.872,24.784a153.076,153.076,0,0,0-43.685-51.356l19.993-11.992a7.99,7.99,0,0,1,9.777,1.2ZM353.652,359.4C327.692,375.263,293.012,384,256,384s-71.692-8.737-97.652-24.6C133.619,344.287,120,324.612,120,304V240c0-74.991,61.009-136,136-136s136,61.009,136,136v64C392,324.612,378.381,344.287,353.652,359.4Zm-211.311,8.615q3.671,2.592,7.664,5.038C178.442,390.43,216.085,400,256,400s77.558-9.57,106-26.948q4-2.442,7.664-5.038,1.751.014,3.486.057c-6.067,8.554-14.581,16.486-25.324,23.438C323.413,407.3,290.8,416,256,416s-67.413-8.7-91.821-24.491c-10.743-6.952-19.257-14.884-25.324-23.438Q140.591,368.027,142.341,368.014ZM398.687,187.6l10.267-17.111A168.271,168.271,0,0,1,424,240v8H408v-8A151.3,151.3,0,0,0,398.687,187.6ZM408,264h16v32H408ZM384,64V92.965a23.938,23.938,0,0,0-20.64-2.4A184.267,184.267,0,0,0,336,74.22V64a24,24,0,0,1,48,0ZM178.563,32H333.437l1.357.97A39.935,39.935,0,0,0,320,64V67.4a184.4,184.4,0,0,0-192,40.442V68.117ZM32,67.314,51.314,48H92.686L112,67.314v58.128A182.085,182.085,0,0,0,76.341,200H53.275L32,150.358ZM56,312V216H73.552A186.91,186.91,0,0,0,72,240v72Zm32,0h16.514A66.913,66.913,0,0,0,112,335.146V354.5a173.673,173.673,0,0,0-24,5.617ZM347.821,423.509C323.413,439.3,290.8,448,256,448s-67.413-8.7-91.821-24.491c-17.522-11.338-29.131-25.281-33.825-40.289a112.956,112.956,0,0,0,25.133,21.722C182.454,422.391,218.149,432,256,432s73.546-9.609,100.513-27.058a112.956,112.956,0,0,0,25.133-21.722C376.952,398.228,365.343,412.171,347.821,423.509ZM400,354.5v-19.35A66.913,66.913,0,0,0,407.486,312H424v48.113A173.673,173.673,0,0,0,400,354.5ZM438.423,216H456v96H440V240A184.351,184.351,0,0,0,438.423,216Z" style="fill:url(#New_Gradient_Swatch_2-8)"/><path d="M440,112a24,24,0,1,0-24-24A24.027,24.027,0,0,0,440,112Zm0-32a8,8,0,1,1-8,8A8.009,8.009,0,0,1,440,80Z" style="fill:url(#New_Gradient_Swatch_2-9)"/><rect x="432" y="128" width="16" height="16" style="fill:url(#New_Gradient_Swatch_2-10)"/></svg>
