<?xml version="1.0"?>
<svg xmlns="http://www.w3.org/2000/svg" xmlns:xlink="http://www.w3.org/1999/xlink" id="GD001" viewBox="0 0 512 512" width="512" height="512"><defs><linearGradient id="New_Gradient_Swatch_2" x1="249.202" y1="77.835" x2="262.162" y2="356.471" gradientUnits="userSpaceOnUse"><stop offset="0" stop-color="#fc5c7d"/><stop offset="0.129" stop-color="#f35e85"/><stop offset="0.343" stop-color="#d9659b"/><stop offset="0.616" stop-color="#b070bf"/><stop offset="0.934" stop-color="#777ff0"/><stop offset="1" stop-color="#6a82fb"/></linearGradient><linearGradient id="New_Gradient_Swatch_2-2" x1="209.288" y1="79.691" x2="222.248" y2="358.327" xlink:href="#New_Gradient_Swatch_2"/><linearGradient id="New_Gradient_Swatch_2-3" x1="386.208" y1="71.462" x2="399.167" y2="350.098" xlink:href="#New_Gradient_Swatch_2"/><linearGradient id="New_Gradient_Swatch_2-4" x1="306.38" y1="75.175" x2="319.34" y2="353.811" xlink:href="#New_Gradient_Swatch_2"/><linearGradient id="New_Gradient_Swatch_2-5" x1="106.255" y1="84.483" x2="119.215" y2="363.119" xlink:href="#New_Gradient_Swatch_2"/></defs><path d="M456,72H424V56a8,8,0,0,0-8-8H376a8,8,0,0,0-8,8V72H352V56a8,8,0,0,0-8-8H304a8,8,0,0,0-8,8V72H195.313L173.657,50.343A8,8,0,0,0,168,48h-9.754l-6.485-25.94A8,8,0,0,0,144,16H80a8,8,0,0,0-7.761,6.06L65.754,48H56a8,8,0,0,0-8,8V368a8,8,0,0,0,2.343,5.657l32,32A8,8,0,0,0,88,408h8v56a32.036,32.036,0,0,0,32,32H392a32.036,32.036,0,0,0,32-32V432h8a32.036,32.036,0,0,0,32-32V80A8,8,0,0,0,456,72ZM384,261.293a27.951,27.951,0,0,0,24,0V296H384ZM408,236a12,12,0,0,1-24,0V124a12,12,0,0,1,24,0Zm0-172V98.707a27.951,27.951,0,0,0-24,0V64ZM368,88V312a8,8,0,0,1-16,0V88Zm-56,36a12,12,0,0,1,24,0V236a12,12,0,0,1-24,0Zm0,137.293a27.951,27.951,0,0,0,24,0V296H312ZM336,64V98.707a27.951,27.951,0,0,0-24,0V64ZM86.246,32h51.508l4,16H82.246ZM408,464a16.019,16.019,0,0,1-16,16H128a16.019,16.019,0,0,1-16-16V408h32v24a32.036,32.036,0,0,0,32,32H288a32.036,32.036,0,0,0,32-32h88ZM246.253,360H186.246l4-16H241.89ZM176,328a8.009,8.009,0,0,1-8-8V128a8.009,8.009,0,0,1,8-8h80a8.009,8.009,0,0,1,8,8V320a8.009,8.009,0,0,1-8,8Zm-.239,73.94L182.246,376h68.371l8.842,32.42A32.068,32.068,0,0,0,290.331,432H304a16.019,16.019,0,0,1-16,16H176a16.019,16.019,0,0,1-16-16V408h8A8,8,0,0,0,175.761,401.94ZM448,400a16.019,16.019,0,0,1-16,16H290.331A16.035,16.035,0,0,1,274.9,404.21L258.44,343.877A24.035,24.035,0,0,0,280,320V128a24.027,24.027,0,0,0-24-24H176a24.027,24.027,0,0,0-24,24V320a24.031,24.031,0,0,0,21.781,23.894L161.754,392H91.313L64,364.687V64H164.687l21.656,21.657A8,8,0,0,0,192,88H296V304a8,8,0,0,0,8,8h32a24,24,0,0,0,48,0h32a8,8,0,0,0,8-8V88h24Z" style="fill:url(#New_Gradient_Swatch_2)"/><path d="M240,136H192a8,8,0,0,0-8,8V304a8,8,0,0,0,8,8h48a8,8,0,0,0,8-8V144A8,8,0,0,0,240,136Zm-8,16v24H200V152Zm-32,64V192h32v24Zm32,16v24H200V232Zm-32,64V272h32v24Z" style="fill:url(#New_Gradient_Swatch_2-2)"/><path d="M400,336a32,32,0,1,0,32,32A32.036,32.036,0,0,0,400,336Zm0,48a16,16,0,1,1,16-16A16.019,16.019,0,0,1,400,384Z" style="fill:url(#New_Gradient_Swatch_2-3)"/><path d="M320,336a32,32,0,1,0,32,32A32.036,32.036,0,0,0,320,336Zm0,48a16,16,0,1,1,16-16A16.019,16.019,0,0,1,320,384Z" style="fill:url(#New_Gradient_Swatch_2-4)"/><path d="M80,88V336H96V96h48V80H88A8,8,0,0,0,80,88Z" style="fill:url(#New_Gradient_Swatch_2-5)"/></svg>
