<svg id="GD001" height="512" viewBox="0 0 512 512" width="512" xmlns="http://www.w3.org/2000/svg" xmlns:xlink="http://www.w3.org/1999/xlink"><linearGradient id="New_Gradient_Swatch_2" gradientUnits="userSpaceOnUse" x1="268" x2="268" y1="98.598" y2="413.843"><stop offset="0" stop-color="#fc5c7d"/><stop offset=".129" stop-color="#f35e85"/><stop offset=".343" stop-color="#d9659b"/><stop offset=".616" stop-color="#b070bf"/><stop offset=".934" stop-color="#777ff0"/><stop offset="1" stop-color="#6a82fb"/></linearGradient><linearGradient id="New_Gradient_Swatch_2-2" x1="336" x2="336" xlink:href="#New_Gradient_Swatch_2" y1="98.598" y2="413.843"/><linearGradient id="New_Gradient_Swatch_2-3" x1="312" x2="312" xlink:href="#New_Gradient_Swatch_2" y1="98.598" y2="413.843"/><linearGradient id="New_Gradient_Swatch_2-5" x1="208" x2="208" xlink:href="#New_Gradient_Swatch_2" y1="98.598" y2="413.843"/><linearGradient id="New_Gradient_Swatch_2-6" x1="248" x2="248" xlink:href="#New_Gradient_Swatch_2" y1="98.598" y2="413.843"/><linearGradient id="New_Gradient_Swatch_2-7" x1="288" x2="288" xlink:href="#New_Gradient_Swatch_2" y1="98.598" y2="413.843"/><linearGradient id="New_Gradient_Swatch_2-8" x1="192" x2="192" xlink:href="#New_Gradient_Swatch_2" y1="98.598" y2="413.843"/><linearGradient id="New_Gradient_Swatch_2-9" x1="405.332" x2="405.332" xlink:href="#New_Gradient_Swatch_2" y1="98.598" y2="413.843"/><linearGradient id="New_Gradient_Swatch_2-10" x1="118.003" x2="118.003" xlink:href="#New_Gradient_Swatch_2" y1="98.598" y2="413.843"/><linearGradient id="New_Gradient_Swatch_2-11" x1="197.551" x2="197.551" xlink:href="#New_Gradient_Swatch_2" y1="98.598" y2="413.843"/><path d="m136 312h264a8 8 0 0 0 8-8v-32a56.064 56.064 0 0 0 -56-56h-8a7.976 7.976 0 0 0 -2.343-5.657l-54.433-54.433-23.463-93.85a8 8 0 0 0 -9.328-5.905l-8.376 1.675-6.138-42.961-15.838 2.262 6.263 43.842-15.914 3.183a8 8 0 0 0 -5.815 4.767l-40 96a8 8 0 0 0 .23 6.655l19.693 39.379a40.219 40.219 0 0 0 -8.179 10.921 56.016 56.016 0 0 0 -36.044-21.257l7.678-184.288-15.986-.666-8 192h.01c0 .112-.017 48.333-.017 48.333a8 8 0 0 0 2.343 5.657l2.857 2.857a8 8 0 0 0 -5.2 7.486v32a8 8 0 0 0 8 8zm256-16h-248v-16h248zm-200-56a24 24 0 1 1 24 24 24.028 24.028 0 0 1 -24-24zm60.661 15.975 8.026 8.025h-12.709a39.966 39.966 0 0 0 4.683-8.025zm99.339-23.975a40.067 40.067 0 0 1 39.2 32h-91.887l32-32zm-72 28.687-24.16-24.161a39.941 39.941 0 0 0 -14.015-27.037l38.175-38.176 44.687 44.687zm-95.207-92.987 36.954-88.689 28.341-5.669 21.052 84.207-44.034 44.035a39.913 39.913 0 0 0 -24.926.882zm-8.793 88.3v8h-20.686l-11.314-11.314v-35.886a40.071 40.071 0 0 1 32 39.2z" fill="url(#New_Gradient_Swatch_2)"/><path d="m328 328h16v32h-16z" fill="url(#New_Gradient_Swatch_2-2)"/><path d="m312 432a56.1 56.1 0 0 0 -52.812 37.334l15.086 5.332a40.02 40.02 0 0 1 75.452 0l15.086-5.332a56.1 56.1 0 0 0 -52.812-37.334z" fill="url(#New_Gradient_Swatch_2-3)"/><path d="m304 392h16v24h-16z" fill="url(#New_Gradient_Swatch_2-3)"/><path d="m200 328h16v24h-16z" fill="url(#New_Gradient_Swatch_2-5)"/><path d="m240 392h16v48h-16z" fill="url(#New_Gradient_Swatch_2-6)"/><path d="m280 344h16v16h-16z" fill="url(#New_Gradient_Swatch_2-7)"/><path d="m184 416h16v16h-16z" fill="url(#New_Gradient_Swatch_2-8)"/><path d="m458.384 451.4a56.079 56.079 0 0 0 -28.2-17.583 56.02 56.02 0 0 0 -54.184-41.817v-64h-16v66.342a55.866 55.866 0 0 0 -21.335 11.92l10.67 11.922a39.927 39.927 0 0 1 26.665-10.184 40.343 40.343 0 0 1 36.685 24.1 55.95 55.95 0 0 0 -24.691 7.394l8.012 13.849a39.976 39.976 0 0 1 19.994-5.343 39.994 39.994 0 0 1 40 40h16a55.978 55.978 0 0 0 -13.616-36.6z" fill="url(#New_Gradient_Swatch_2-9)"/><path d="m160 392a39.976 39.976 0 0 1 19.994 5.346l8.012-13.849a55.883 55.883 0 0 0 -20.006-6.917v-48.58h-16v48.574a56.125 56.125 0 0 0 -47.431 47.426 56.042 56.042 0 0 0 -55.795 65.321l15.779-2.648a40.474 40.474 0 0 1 -.553-6.673 40.045 40.045 0 0 1 40-40 40.516 40.516 0 0 1 6.691.568c.053.009.107.01.16.018a40.1 40.1 0 0 1 22.966 12.749l11.922-10.67a56.252 56.252 0 0 0 -25.345-16.215 40.054 40.054 0 0 1 39.606-34.45z" fill="url(#New_Gradient_Swatch_2-10)"/><path d="m174.219 457.405 3.562 15.6a40.239 40.239 0 0 1 8.95-1 39.615 39.615 0 0 1 24.387 8.291l9.765-12.675a55.484 55.484 0 0 0 -34.152-11.621 56.283 56.283 0 0 0 -12.512 1.405z" fill="url(#New_Gradient_Swatch_2-11)"/></svg>