<svg id="GD001" height="512" viewBox="0 0 512 512" width="512" xmlns="http://www.w3.org/2000/svg" xmlns:xlink="http://www.w3.org/1999/xlink"><linearGradient id="New_Gradient_Swatch_2" gradientUnits="userSpaceOnUse" x1="253.241" x2="253.241" y1="73.814" y2="406.575"><stop offset="0" stop-color="#fc5c7d"/><stop offset=".129" stop-color="#f35e85"/><stop offset=".343" stop-color="#d9659b"/><stop offset=".616" stop-color="#b070bf"/><stop offset=".934" stop-color="#777ff0"/><stop offset="1" stop-color="#6a82fb"/></linearGradient><linearGradient id="New_Gradient_Swatch_2-2" gradientTransform="matrix(.707 .707 -.707 .707 261.165 -80.527)" x1="227.785" x2="227.785" xlink:href="#New_Gradient_Swatch_2" y1="73.814" y2="406.575"/><linearGradient id="New_Gradient_Swatch_2-3" gradientTransform="matrix(.707 .707 -.707 .707 251.769 -103.156)" x1="250.412" x2="250.412" xlink:href="#New_Gradient_Swatch_2" y1="73.814" y2="406.575"/><linearGradient id="New_Gradient_Swatch_2-4" gradientTransform="matrix(.707 .707 -.707 .707 270.515 -57.903)" x1="205.157" x2="205.157" xlink:href="#New_Gradient_Swatch_2" y1="73.814" y2="406.575"/><path d="m493.657 99.618-33.941-33.941a8 8 0 0 0 -11.315 0l-16.969 16.97-11.314-11.313 16.971-16.971a8 8 0 0 0 0-11.313l-33.942-33.942a8 8 0 0 0 -11.314 0l-17.96 17.961a24.022 24.022 0 0 0 -27.3 4.667l-226.273 226.274a8 8 0 0 0 0 11.314l5.657 5.657-113.133 113.137a8 8 0 0 0 0 11.313l45.255 45.255a8 8 0 0 0 11.315 0l7.393-7.393 57.178 25.99a8 8 0 0 0 8.968-1.626l11.313-11.313 16.97 16.969a8 8 0 0 0 11.314 0l5.657-5.656 33.941 33.943a56 56 0 0 0 79.2 0l67.882-67.882a8 8 0 0 0 2.343-5.657v-166.393l99.481-99.481a24.024 24.024 0 0 0 4.667-27.294l17.96-17.961a8 8 0 0 0 -.004-11.314zm-96.167-73.539 22.628 22.628-11.318 11.313-22.623-22.627zm-39.6 16.97a8.009 8.009 0 0 1 11.313 0l39.6 39.6-11.312 11.312-16.971-16.971a16.02 16.02 0 0 0 -22.628 0l-11.314 11.315a16.018 16.018 0 0 0 0 22.627l16.971 16.97-90.51 90.51-5.656-5.657a24 24 0 0 0 -33.942 0l-36.1 36.1-33.941-11.311 64.386-64.387 16.97 16.971a24.028 24.028 0 0 0 33.941 0l45.254-45.254a24 24 0 0 0 0-33.942l-16.97-16.971zm0 56.569 11.316-11.318 45.262 45.248-.007.008-11.314 11.313zm-16.971 96.167-11.311 11.315-11.314-11.313 11.314-11.314zm-46.242 46.245a23.842 23.842 0 0 0 -4.666-6.647l-5.658-5.658 22.627-22.625 11.314 11.314zm17.96-108.47-5.657 5.656-22.627-22.627 11.314-11.314 16.971 16.971a8 8 0 0 1 0 11.314zm-16.971 16.97-11.313 11.313-22.627-22.627 11.313-11.316zm-22.627 22.627-5.657 5.657a8.008 8.008 0 0 1 -11.313 0l-16.969-16.971 11.313-11.313zm-122.289 77.035 46.22 15.408a8 8 0 0 0 8.187-1.933l39.6-39.6a8 8 0 0 1 11.312 0l22.631 22.633a8.01 8.01 0 0 1 0 11.314l-39.6 39.6a8 8 0 0 0 -1.933 8.187l15.407 46.221-13.474 13.468-101.826-101.823zm82.692 154.9-16.971-16.97 11.314-11.322 5.656 5.657a8 8 0 0 0 11.315 0l11.313-11.314 5.259 5.259a30.936 30.936 0 0 0 35.76 5.8l7.812-3.902-7.156-14.31-7.814 3.907a14.956 14.956 0 0 1 -17.289-2.806l-5.26-5.26 48.568-48.568v90.51l-42.912 42.912a16 16 0 0 1 -22.627 0l-22.627-22.628 5.657-5.657a8 8 0 0 0 0-11.314zm-62.226-84.852-11.316 11.309-33.941-33.941 11.316-11.308zm-107.48 107.475-33.936-33.941 84.853-84.852 33.941 33.941zm71.8 18.708-46.666-21.213 93.66-93.66 11.313 11.313-67.882 67.882 11.314 11.314 67.882-67.882 11.314 11.314zm30.021-7.393 39.6-39.6 11.314 11.313-39.6 39.6zm189.989-20.284-65.536 65.538a40 40 0 0 1 -56.568 0l-33.942-33.941 16.97-16.97 22.63 22.627a32 32 0 0 0 45.255 0l45.254-45.255a8 8 0 0 0 2.343-5.657v-109.823l23.6-23.6zm104.17-273.873-194.494 194.494-11.314-33.941 103.985-103.985a8 8 0 0 0 0-11.313l-16.971-16.971 33.941-33.941 16.97 16.97a16 16 0 0 0 22.627 0l11.314-11.313a16.018 16.018 0 0 0 0-22.627l-16.97-16.971 11.313-11.314 39.6 39.6a8.01 8.01 0 0 1 -.001 11.312zm5.657-28.285-22.627-22.627 11.313-11.313 22.628 22.627z" fill="url(#New_Gradient_Swatch_2)"/><path d="m219.785 266.981h16v16h-16z" fill="url(#New_Gradient_Swatch_2-2)" transform="matrix(.707 -.707 .707 .707 -127.725 241.616)"/><path d="m242.412 244.354h16.001v15.999h-16.001z" fill="url(#New_Gradient_Swatch_2-3)" transform="matrix(.707 -.707 .707 .707 -105.097 250.965)"/><path d="m197.157 289.609h16.001v15.999h-16.001z" fill="url(#New_Gradient_Swatch_2-4)" transform="matrix(.707 -.707 .707 .707 -150.349 232.22)"/></svg>