<?xml version="1.0"?>
<svg xmlns="http://www.w3.org/2000/svg" xmlns:xlink="http://www.w3.org/1999/xlink" id="GD001" viewBox="0 0 512 512" width="512" height="512"><defs><linearGradient id="New_Gradient_Swatch_2" x1="244.908" y1="45.259" x2="260.267" y2="337.065" gradientUnits="userSpaceOnUse"><stop offset="0" stop-color="#fc5c7d"/><stop offset="0.129" stop-color="#f35e85"/><stop offset="0.343" stop-color="#d9659b"/><stop offset="0.616" stop-color="#b070bf"/><stop offset="0.934" stop-color="#777ff0"/><stop offset="1" stop-color="#6a82fb"/></linearGradient><linearGradient id="New_Gradient_Swatch_2-2" x1="248.989" y1="45.044" x2="264.347" y2="336.85" xlink:href="#New_Gradient_Swatch_2"/><linearGradient id="New_Gradient_Swatch_2-3" x1="145.678" y1="50.482" x2="161.036" y2="342.287" xlink:href="#New_Gradient_Swatch_2"/><linearGradient id="New_Gradient_Swatch_2-4" x1="165.414" y1="49.443" x2="180.772" y2="341.249" xlink:href="#New_Gradient_Swatch_2"/><linearGradient id="New_Gradient_Swatch_2-5" x1="347.804" y1="39.844" x2="363.162" y2="331.649" xlink:href="#New_Gradient_Swatch_2"/><linearGradient id="New_Gradient_Swatch_2-6" x1="386.222" y1="37.822" x2="401.58" y2="329.627" xlink:href="#New_Gradient_Swatch_2"/></defs><path d="M425.705,86.3A240,240,0,1,0,86.3,425.705,240,240,0,1,0,425.705,86.3Zm-11.313,328.1A224,224,0,0,1,97.608,97.608,224,224,0,0,1,414.392,414.392Z" style="fill:url(#New_Gradient_Swatch_2)"/><path d="M174.714,114.361a37.2,37.2,0,0,1,.435,11.941l-4.339,34.722a52.954,52.954,0,0,0,15.2,44.3l3.066,3.067A52.954,52.954,0,0,0,226.763,224h13.886a53.218,53.218,0,0,0,16.855-2.735l10.052-3.351a53.3,53.3,0,0,0,33.71-67.418l-2.735-8.2a37.38,37.38,0,0,1,14.7-42.828l4.639-3.095a53.178,53.178,0,0,0,22.142-31.419L324.485,61.07a37.214,37.214,0,0,1-15.5,21.989l-4.639,3.093a53.413,53.413,0,0,0-21,61.2l2.734,8.2a37.3,37.3,0,0,1-23.59,47.179l-10.052,3.351A37.243,37.243,0,0,1,240.649,208H226.763a37.05,37.05,0,0,1-26.373-10.925l-3.067-3.066a37.053,37.053,0,0,1-10.636-31l4.339-34.722a53.188,53.188,0,0,0-.623-17.064L186.534,91.88a53.119,53.119,0,0,0-14.575-27.235L160.645,75.959a37.178,37.178,0,0,1,10.2,19.06Z" style="fill:url(#New_Gradient_Swatch_2-2)"/><path d="M95.511,314.123l8.708,2.178a33.357,33.357,0,0,0,31.526-8.732,17.172,17.172,0,0,1,21.009-2.587l19.389,11.633a33.145,33.145,0,0,0,10.568,4.086l22.5,4.5a33.149,33.149,0,0,0,29.986-9.079l2.715-2.715a33.161,33.161,0,0,0,7.349-35.8l-3.493-8.735A33.041,33.041,0,0,0,214.94,248h-28.5a17.084,17.084,0,0,1-12.161-5.038l-33.238-33.238A32.98,32.98,0,0,0,117.562,200H108.6A33.358,33.358,0,0,0,82.04,213.279l-11.4,15.2A33.409,33.409,0,0,0,64,248.4v23.972a33.092,33.092,0,0,0,5.576,18.414l6.363,9.547A33.123,33.123,0,0,0,95.511,314.123ZM80,248.4a17.31,17.31,0,0,1,3.44-10.319l11.4-15.2A17.281,17.281,0,0,1,108.6,216h8.963a17.085,17.085,0,0,1,12.162,5.038l33.238,33.238A32.981,32.981,0,0,0,186.437,264h28.5a17.117,17.117,0,0,1,15.968,10.811l3.493,8.733a17.178,17.178,0,0,1-3.807,18.548l-2.715,2.715a17.164,17.164,0,0,1-15.533,4.7l-22.494-4.5a17.163,17.163,0,0,1-5.478-2.117l-19.388-11.633a33.151,33.151,0,0,0-40.555,4.993,17.277,17.277,0,0,1-16.331,4.524L99.391,298.6a17.157,17.157,0,0,1-10.138-7.144l-6.364-9.548A17.136,17.136,0,0,1,80,272.371Z" style="fill:url(#New_Gradient_Swatch_2-3)"/><path d="M238.871,366.036l-4.512,1.128a28.02,28.02,0,0,1-6.791.836H194a28.168,28.168,0,0,1-22.441-11.255l-.028-.036a43.858,43.858,0,0,0-42.434-17l-21.072,3.513a43.963,43.963,0,0,0-12.445,4.047L72.422,358.845l7.156,14.31,23.157-11.578a27.963,27.963,0,0,1,7.92-2.575l21.072-3.513a27.93,27.93,0,0,1,27.045,10.874l.028.036A44.21,44.21,0,0,0,194,384h33.568a44.073,44.073,0,0,0,10.671-1.313l4.512-1.128A28,28,0,0,1,277,414.222l-.135.674a27.919,27.919,0,0,1-21.954,21.964l-.41.081a43.993,43.993,0,0,0-29.574,21.318l-2.933,5.134,13.893,7.935,2.931-5.132a28,28,0,0,1,18.81-13.563l.41-.081a43.888,43.888,0,0,0,34.518-34.524l.134-.674a44,44,0,0,0-53.816-51.318Z" style="fill:url(#New_Gradient_Swatch_2-4)"/><path d="M428.62,329.306a40.393,40.393,0,0,0-20.706-11.081L390.777,314.8a24.353,24.353,0,0,1-15.592-10.443l-19.738-29.606a40.52,40.52,0,0,0-66.131-1.836l-1.212,1.616A40.773,40.773,0,0,0,280,298.84v21.483a40.715,40.715,0,0,0,4.278,18.12l18.206,36.415a40.5,40.5,0,0,0,7.59,10.531l10.743,10.743A24.358,24.358,0,0,1,328,413.471v26.852a24.494,24.494,0,0,1-.95,6.759l15.381,4.41A40.535,40.535,0,0,0,344,440.323V413.471a40.262,40.262,0,0,0-11.868-28.654l-10.743-10.743A24.462,24.462,0,0,1,316.8,367.7l-18.206-36.415A24.652,24.652,0,0,1,296,320.323V298.84a24.67,24.67,0,0,1,4.9-14.711l1.213-1.616a24.522,24.522,0,0,1,40.019,1.11l19.737,29.606a40.247,40.247,0,0,0,25.768,17.257l17.136,3.428a24.437,24.437,0,0,1,12.53,6.706l7.511,7.512a40.66,40.66,0,0,0,16.935,10.137l4.627-15.317a24.573,24.573,0,0,1-10.247-6.135Z" style="fill:url(#New_Gradient_Swatch_2-5)"/><path d="M451.142,218.314l-8.055-20.137a13.94,13.94,0,0,1,7.451-17.989l-6.3-14.708a29.942,29.942,0,0,0-16,38.638l8.055,20.139a13.933,13.933,0,0,1-1.341,12.9l-.718,1.076a13.888,13.888,0,0,1-15.427,5.671l-35.136-10.039a13.961,13.961,0,0,1-6.026-3.546l-15.009-15.009a13.861,13.861,0,0,1-3.894-7.564l-6.546-39.277a13.9,13.9,0,0,1-.189-2.288V142.077a13.942,13.942,0,0,1,1.987-7.172L374.1,101.393a30.208,30.208,0,0,0,1.845-3.61l4.546-10.608-14.707-6.3-4.545,10.607a13.858,13.858,0,0,1-.86,1.681l-20.107,33.514a29.946,29.946,0,0,0-4.267,15.4v24.108a30.108,30.108,0,0,0,.407,4.921l6.546,39.275a29.784,29.784,0,0,0,8.361,16.248l15.009,15.009a30.025,30.025,0,0,0,12.945,7.616L414.4,259.293a29.864,29.864,0,0,0,33.133-12.177l.72-1.077A29.929,29.929,0,0,0,451.142,218.314Z" style="fill:url(#New_Gradient_Swatch_2-6)"/></svg>
