<svg id="GD001" height="512" viewBox="0 0 512 512" width="512" xmlns="http://www.w3.org/2000/svg" xmlns:xlink="http://www.w3.org/1999/xlink"><linearGradient id="New_Gradient_Swatch_2" gradientUnits="userSpaceOnUse" x1="251.055" x2="261.294" y1="63.157" y2="462.469"><stop offset="0" stop-color="#fc5c7d"/><stop offset=".129" stop-color="#f35e85"/><stop offset=".343" stop-color="#d9659b"/><stop offset=".616" stop-color="#b070bf"/><stop offset=".934" stop-color="#777ff0"/><stop offset="1" stop-color="#6a82fb"/></linearGradient><linearGradient id="New_Gradient_Swatch_2-2" x1="193.862" x2="204.101" xlink:href="#New_Gradient_Swatch_2" y1="64.623" y2="463.936"/><linearGradient id="New_Gradient_Swatch_2-3" x1="250.056" x2="260.295" xlink:href="#New_Gradient_Swatch_2" y1="63.182" y2="462.495"/><linearGradient id="New_Gradient_Swatch_2-4" x1="264.081" x2="274.32" xlink:href="#New_Gradient_Swatch_2" y1="62.823" y2="462.135"/><linearGradient id="New_Gradient_Swatch_2-5" x1="65.303" x2="75.542" xlink:href="#New_Gradient_Swatch_2" y1="67.919" y2="467.232"/><linearGradient id="New_Gradient_Swatch_2-6" x1="436.871" x2="447.109" xlink:href="#New_Gradient_Swatch_2" y1="58.392" y2="457.705"/><linearGradient id="New_Gradient_Swatch_2-7" x1="244.882" x2="255.121" xlink:href="#New_Gradient_Swatch_2" y1="63.315" y2="462.628"/><linearGradient id="New_Gradient_Swatch_2-8" x1="282.775" x2="293.013" xlink:href="#New_Gradient_Swatch_2" y1="62.343" y2="461.656"/><linearGradient id="New_Gradient_Swatch_2-9" x1="232.389" x2="242.628" xlink:href="#New_Gradient_Swatch_2" y1="63.635" y2="462.948"/><path d="m425.706 86.3a240 240 0 1 0 -339.412 339.405 240 240 0 1 0 339.412-339.405zm-11.314 328.1a224 224 0 0 1 -316.784-316.792 224 224 0 0 1 316.784 316.784z" fill="url(#New_Gradient_Swatch_2)"/><path d="m200 352c16.611 0 32.326-4.689 44.248-13.206 12.737-9.094 19.752-21.454 19.752-34.794s-7.015-25.7-19.752-34.794c-11.922-8.517-27.637-13.206-44.248-13.206s-32.326 4.689-44.248 13.206c-12.737 9.094-19.752 21.454-19.752 34.794s7.015 25.7 19.752 34.794c11.922 8.517 27.637 13.206 44.248 13.206zm0-80c26.019 0 48 14.654 48 32s-21.981 32-48 32-48-14.654-48-32 21.981-32 48-32z" fill="url(#New_Gradient_Swatch_2-2)"/><path d="m377.728 264c-32.166 0-63.556-12.288-88.39-34.6-21.099-18.96-49.986-29.4-81.338-29.4-30.218 0-58.369 9.8-79.266 27.586a153.683 153.683 0 0 1 -81.4 35.217l1.937 15.883a169.648 169.648 0 0 0 89.829-38.916c18.011-15.329 42.479-23.77 68.9-23.77 27.4 0 52.486 8.984 70.645 25.3 27.774 24.956 62.963 38.7 99.083 38.7h85.317v-16z" fill="url(#New_Gradient_Swatch_2-3)"/><path d="m288.756 371.545c-17.509 13.19-40.507 20.455-64.756 20.455s-47.242-7.263-64.75-20.45a214.915 214.915 0 0 0 -60.691-31.972l-5.118 15.16a198.954 198.954 0 0 1 56.183 29.592c20.265 15.264 46.676 23.67 74.376 23.67s54.117-8.408 74.384-23.676c34.516-26.004 77.786-40.324 121.838-40.324h28.784v-16h-28.784c-47.503 0-94.192 15.465-131.466 43.545z" fill="url(#New_Gradient_Swatch_2-4)"/><path d="m62.649 346.96c5.155.884 10.336 1.978 15.4 3.251l3.9-15.516c-5.459-1.374-11.044-2.552-16.6-3.5z" fill="url(#New_Gradient_Swatch_2-5)"/><path d="m448.069 183.967-.138-16c-5.039.044-10.5.061-15.77-.045l-.322 16c2.692.055 5.438.082 8.161.082q4.152-.004 8.069-.037z" fill="url(#New_Gradient_Swatch_2-6)"/><path d="m200 144c50.848 0 83.341 9.557 117.743 19.675 28.419 8.359 57.806 17 97.746 19.559l1.022-15.966c-38.159-2.444-65.407-10.458-94.254-18.943-33.974-9.992-69.105-20.325-122.257-20.325-35.531 0-76.626 3.667-122.143 10.9l2.511 15.8c44.689-7.1 84.939-10.7 119.632-10.7z" fill="url(#New_Gradient_Swatch_2-7)"/><path d="m352 112c18.418 0 34.17-.484 48.155-1.482l-1.139-15.959c-13.602.969-28.981 1.441-47.016 1.441-50.848 0-83.342-9.557-117.743-19.675-19.92-5.858-40.518-11.917-64.706-15.844l-2.564 15.793c23.2 3.767 43.308 9.681 62.755 15.4 33.975 9.994 69.106 20.326 122.258 20.326z" fill="url(#New_Gradient_Swatch_2-8)"/><path d="m161.223 433.871 1.2 15.955c16.058-1.212 31.391-1.826 45.577-1.826 46.576 0 77.589 7.945 110.478 17.544l4.482-15.359c-32.834-9.585-66.334-18.185-114.96-18.185-14.585 0-30.324.63-46.777 1.871z" fill="url(#New_Gradient_Swatch_2-9)"/></svg>