<svg id="GD001" enable-background="new 0 0 512 512" height="512" viewBox="0 0 512 512" width="512" xmlns="http://www.w3.org/2000/svg" xmlns:xlink="http://www.w3.org/1999/xlink"><linearGradient id="lg1"><stop offset="0" stop-color="#fc5c7d"/><stop offset=".129" stop-color="#f35e85"/><stop offset=".343" stop-color="#d9659b"/><stop offset=".616" stop-color="#b070bf"/><stop offset=".934" stop-color="#777ff0"/><stop offset="1" stop-color="#6a82fb"/></linearGradient><linearGradient id="SVGID_1_" gradientUnits="userSpaceOnUse" x1="248" x2="248" xlink:href="#lg1" y1="63.282" y2="450.199"/><linearGradient id="SVGID_2_" gradientUnits="userSpaceOnUse" x1="77.463" x2="77.463" xlink:href="#lg1" y1="63.282" y2="450.199"/><linearGradient id="SVGID_3_" gradientUnits="userSpaceOnUse" x1="420.351" x2="420.351" xlink:href="#lg1" y1="63.282" y2="450.199"/><linearGradient id="SVGID_4_" gradientUnits="userSpaceOnUse" x1="392.2" x2="392.2" xlink:href="#lg1" y1="63.282" y2="450.199"/><linearGradient id="SVGID_5_" gradientUnits="userSpaceOnUse" x1="160" x2="160" xlink:href="#lg1" y1="63.282" y2="450.199"/><linearGradient id="SVGID_6_" gradientUnits="userSpaceOnUse" x1="288" x2="288" xlink:href="#lg1" y1="63.282" y2="450.199"/><linearGradient id="SVGID_7_" gradientUnits="userSpaceOnUse" x1="182.95" x2="182.95" xlink:href="#lg1" y1="63.282" y2="450.199"/><linearGradient id="SVGID_8_" gradientUnits="userSpaceOnUse" x1="247.35" x2="247.35" xlink:href="#lg1" y1="63.282" y2="450.199"/><linearGradient id="SVGID_10_" gradientUnits="userSpaceOnUse" x1="248.9" x2="248.9" xlink:href="#lg1" y1="63.282" y2="450.199"/><linearGradient id="SVGID_11_" gradientUnits="userSpaceOnUse" x1="212.2" x2="212.2" xlink:href="#lg1" y1="63.282" y2="450.199"/><linearGradient id="SVGID_12_" gradientUnits="userSpaceOnUse" x1="192" x2="192" xlink:href="#lg1" y1="63.282" y2="450.199"/><linearGradient id="SVGID_13_" gradientUnits="userSpaceOnUse" x1="48" x2="48" xlink:href="#lg1" y1="63.282" y2="450.199"/><linearGradient id="SVGID_14_" gradientUnits="userSpaceOnUse" x1="32" x2="32" xlink:href="#lg1" y1="63.282" y2="450.199"/><linearGradient id="SVGID_15_" gradientUnits="userSpaceOnUse" x1="376" x2="376" xlink:href="#lg1" y1="63.282" y2="450.199"/><linearGradient id="SVGID_16_" gradientUnits="userSpaceOnUse" x1="488" x2="488" xlink:href="#lg1" y1="63.282" y2="450.199"/><linearGradient id="SVGID_17_" gradientUnits="userSpaceOnUse" x1="472" x2="472" xlink:href="#lg1" y1="63.282" y2="450.199"/><linearGradient id="SVGID_19_" gradientUnits="userSpaceOnUse" x1="88" x2="88" xlink:href="#lg1" y1="63.282" y2="450.199"/><path d="m248 448c-110.3 0-200-89.7-200-200s89.7-200 200-200 200 89.7 200 200c0 13-1.2 25.9-3.7 38.6l15.7 3.1c2.7-13.7 4-27.7 4-41.7 0-119.3-96.7-216-216-216-57.3 0-112.2 22.8-152.7 63.3-84.4 84.4-84.4 221.1 0 305.5 40.5 40.4 95.4 63.2 152.7 63.2 14 0 27.9-1.3 41.7-4l-3.1-15.7c-12.7 2.5-25.6 3.7-38.6 3.7z" fill="url(#SVGID_1_)"/><path d="m48.4 127.6c-21.9-21.9-21.9-57.3 0-79.2s57.3-21.9 79.2 0l11.3-11.3c-28.1-28.1-73.7-28.1-101.8 0s-28.1 73.7 0 101.8z" fill="url(#SVGID_2_)"/><path d="m422.8 399.8c-15 3.6-26.7 15.3-30.3 30.3-1.6 7.9.3 15.3 5.2 20.2 3.9 3.8 9.3 5.9 14.8 5.8 8.2 0 17.3-3.9 24.8-11.4 12.7-12.7 15.2-30.1 5.7-39.6-4.9-5-12.2-6.9-20.2-5.3zm3.3 33.5c-6.9 6.9-14.7 8-17 5.7-1-1-1.4-3.2-.8-5.7 2.3-8.6 9.1-15.4 17.7-17.7.7-.2 1.5-.2 2.3-.2 1.3-.1 2.5.3 3.5 1.1 2.2 2.1 1.2 9.9-5.7 16.8z" fill="url(#SVGID_3_)"/><path d="m494.8 391.2c0-56.7-46-102.6-102.6-102.6s-102.6 46-102.6 102.6 46 102.6 102.6 102.6 102.6-45.9 102.6-102.6zm-102.8 88.8c-18.1 0-35.8-5.6-50.5-16h18.5v-16h-35.8c-7.8-9.4-13.5-20.3-16.8-32h28.6v-16h-31.6c-.2-2.6-.4-5.3-.4-8s.1-5.4.4-8h79.6v-16h-76.7c13.2-46.7 61.8-73.9 108.6-60.7 9.5 2.7 18.5 7 26.6 12.7h-42.5v16h59.8c4.1 4.9 7.6 10.3 10.5 16h-38.3v16h44.7c13.2 46.8-13.9 95.4-60.7 108.7-7.8 2.2-15.9 3.3-24 3.3z" fill="url(#SVGID_4_)"/><path d="m160 328c26.9 0 48-14.1 48-32s-21.1-32-48-32-48 14.1-48 32 21.1 32 48 32zm0-48c18.3 0 32 8.4 32 16s-13.7 16-32 16-32-8.4-32-16 13.7-16 32-16z" fill="url(#SVGID_5_)"/><path d="m240 152c0 17.9 21.1 32 48 32s48-14.1 48-32-21.1-32-48-32-48 14.1-48 32zm80 0c0 7.6-13.7 16-32 16s-32-8.4-32-16 13.7-16 32-16 32 8.4 32 16z" fill="url(#SVGID_6_)"/><path d="m288 336v-16h-8.7c-28.2 0-55.3 7.4-78.2 21.4-11.4 6.9-25.6 10.6-41 10.6s-29.7-3.7-41-10.6c-11.5-7-23.9-12.3-36.8-15.9l-4.4 15.5c11.5 3.2 22.5 7.9 32.7 14.1 13.9 8.5 31 12.9 49.4 12.9s35.5-4.5 49.4-12.9c20.4-12.5 44.6-19.1 69.9-19.1z" fill="url(#SVGID_7_)"/><path d="m432 256h-150.7c-25.2 0-50.7-7-73.9-20.2-13.5-7.7-29.9-11.8-47.4-11.8s-33.9 4.1-47.4 11.8c-15.5 8.9-32.4 15.1-49.9 18.1l2.7 15.8c19.4-3.4 38.1-10.2 55.2-20 11.1-6.3 24.8-9.7 39.5-9.7s28.4 3.3 39.5 9.7c25.6 14.6 53.9 22.3 81.8 22.3h150.6z" fill="url(#SVGID_8_)"/><path d="m72 192h94.7c25.2 0 50.7 7 73.9 20.2 13.5 7.7 29.9 11.8 47.4 11.8s33.9-4.1 47.4-11.8c23.2-13.2 48.7-20.2 73.9-20.2h14.7v-16h-14.7c-27.9 0-56.2 7.7-81.8 22.3-11.1 6.3-24.8 9.7-39.5 9.7s-28.4-3.3-39.5-9.7c-25.6-14.6-53.9-22.3-81.8-22.3h-94.7z" fill="url(#SVGID_1_)"/><path d="m377.8 107.5c-15.5-3.7-30.4-9.3-44.4-16.8-13.1-7-28.8-10.7-45.4-10.7s-32.3 3.7-45.4 10.7c-26.2 13.9-54.8 21.3-82.7 21.3h-39.9v16h39.9c30.5 0 61.7-8 90.2-23.2 10.8-5.8 23.9-8.8 37.9-8.8s27.1 3 37.9 8.8c15.2 8.2 31.5 14.3 48.3 18.3z" fill="url(#SVGID_10_)"/><path d="m153.4 413.9c20.6-3.8 41.6-5.8 62.6-5.9 20.5 0 37.2 1.9 54 6.2l3.9-15.5c-18.2-4.6-36.1-6.7-58-6.7-22 .1-43.9 2.1-65.4 6.1z" fill="url(#SVGID_11_)"/><path d="m184 480h16v16h-16z" fill="url(#SVGID_12_)"/><path d="m40 464h16v16h-16z" fill="url(#SVGID_13_)"/><path d="m24 352h16v16h-16z" fill="url(#SVGID_14_)"/><path d="m368 24h16v16h-16z" fill="url(#SVGID_15_)"/><path d="m480 184h16v16h-16z" fill="url(#SVGID_16_)"/><path d="m464 64h16v16h-16z" fill="url(#SVGID_17_)"/><path d="m480 480h16v16h-16z" fill="url(#SVGID_16_)"/><path d="m80 56h16v16h-16z" fill="url(#SVGID_19_)"/></svg>