<svg id="GD001" height="512" viewBox="0 0 512 512" width="512" xmlns="http://www.w3.org/2000/svg" xmlns:xlink="http://www.w3.org/1999/xlink"><linearGradient id="New_Gradient_Swatch_2" gradientUnits="userSpaceOnUse" x1="249.637" x2="259.876" y1="23.808" y2="423.121"><stop offset="0" stop-color="#fc5c7d"/><stop offset=".129" stop-color="#f35e85"/><stop offset=".343" stop-color="#d9659b"/><stop offset=".616" stop-color="#b070bf"/><stop offset=".934" stop-color="#777ff0"/><stop offset="1" stop-color="#6a82fb"/></linearGradient><linearGradient id="New_Gradient_Swatch_2-2" x1="62.887" x2="73.126" xlink:href="#New_Gradient_Swatch_2" y1="28.597" y2="427.91"/><linearGradient id="New_Gradient_Swatch_2-3" x1="54.072" x2="64.311" xlink:href="#New_Gradient_Swatch_2" y1="28.823" y2="428.136"/><linearGradient id="New_Gradient_Swatch_2-4" x1="53.252" x2="63.491" xlink:href="#New_Gradient_Swatch_2" y1="28.844" y2="428.157"/><linearGradient id="New_Gradient_Swatch_2-5" x1="430.645" x2="440.884" xlink:href="#New_Gradient_Swatch_2" y1="19.167" y2="418.48"/><linearGradient id="New_Gradient_Swatch_2-6" x1="437.82" x2="448.059" xlink:href="#New_Gradient_Swatch_2" y1="18.983" y2="418.296"/><linearGradient id="New_Gradient_Swatch_2-7" x1="448.992" x2="459.231" xlink:href="#New_Gradient_Swatch_2" y1="18.697" y2="418.009"/><linearGradient id="New_Gradient_Swatch_2-8" x1="60.427" x2="70.666" xlink:href="#New_Gradient_Swatch_2" y1="28.66" y2="427.973"/><linearGradient id="New_Gradient_Swatch_2-9" x1="51.612" x2="61.851" xlink:href="#New_Gradient_Swatch_2" y1="28.886" y2="428.199"/><linearGradient id="New_Gradient_Swatch_2-10" x1="50.792" x2="61.031" xlink:href="#New_Gradient_Swatch_2" y1="28.907" y2="428.22"/><linearGradient id="New_Gradient_Swatch_2-11" x1="57.967" x2="68.206" xlink:href="#New_Gradient_Swatch_2" y1="28.723" y2="428.036"/><linearGradient id="New_Gradient_Swatch_2-12" x1="49.153" x2="59.391" xlink:href="#New_Gradient_Swatch_2" y1="28.949" y2="428.262"/><linearGradient id="New_Gradient_Swatch_2-13" x1="48.333" x2="58.571" xlink:href="#New_Gradient_Swatch_2" y1="28.97" y2="428.283"/><linearGradient id="New_Gradient_Swatch_2-14" x1="55.507" x2="65.746" xlink:href="#New_Gradient_Swatch_2" y1="28.786" y2="428.099"/><linearGradient id="New_Gradient_Swatch_2-15" x1="251.481" x2="261.72" xlink:href="#New_Gradient_Swatch_2" y1="23.761" y2="423.074"/><linearGradient id="New_Gradient_Swatch_2-16" x1="245.562" x2="255.801" xlink:href="#New_Gradient_Swatch_2" y1="23.913" y2="423.226"/><linearGradient id="New_Gradient_Swatch_2-17" x1="418.108" x2="428.346" xlink:href="#New_Gradient_Swatch_2" y1="19.489" y2="418.801"/><linearGradient id="New_Gradient_Swatch_2-18" x1="415.681" x2="425.92" xlink:href="#New_Gradient_Swatch_2" y1="19.551" y2="418.864"/><linearGradient id="New_Gradient_Swatch_2-19" x1="449.3" x2="459.539" xlink:href="#New_Gradient_Swatch_2" y1="18.689" y2="418.002"/><linearGradient id="New_Gradient_Swatch_2-20" x1="450.837" x2="461.076" xlink:href="#New_Gradient_Swatch_2" y1="18.649" y2="417.962"/><linearGradient id="New_Gradient_Swatch_2-21" x1="315.494" x2="325.733" xlink:href="#New_Gradient_Swatch_2" y1="22.12" y2="421.432"/><linearGradient id="New_Gradient_Swatch_2-22" x1="246.971" x2="257.21" xlink:href="#New_Gradient_Swatch_2" y1="23.877" y2="423.189"/><linearGradient id="New_Gradient_Swatch_2-23" x1="314.927" x2="325.165" xlink:href="#New_Gradient_Swatch_2" y1="22.134" y2="421.447"/><linearGradient id="New_Gradient_Swatch_2-24" x1="179.016" x2="189.255" xlink:href="#New_Gradient_Swatch_2" y1="25.619" y2="424.932"/><path d="m493.657 389.657a8 8 0 0 0 2.343-5.657v-336a8 8 0 0 0 -2.343-5.657l-24-24a8 8 0 0 0 -5.657-2.343h-416a8 8 0 0 0 -5.657 2.343l-24 24a8 8 0 0 0 -2.343 5.657v336a8 8 0 0 0 2.343 5.657l21.657 21.657v24.4l-20.438 13.63a8 8 0 0 0 -3.562 6.656v40h16v-35.719l18.422-12.281h411.156l18.422 12.281v35.719h16v-40a8 8 0 0 0 -3.562-6.656l-20.438-13.625v-24.4zm-437.657 26.343h400v16h-400zm-24-364.687 19.313-19.313h409.374l19.313 19.313v329.374l-19.313 19.313h-409.374l-19.313-19.313z" fill="url(#New_Gradient_Swatch_2)"/><path d="m48 64h32v16h-32z" fill="url(#New_Gradient_Swatch_2-2)"/><path d="m48 96h16v16h-16z" fill="url(#New_Gradient_Swatch_2-3)"/><path d="m48 128h16v16h-16z" fill="url(#New_Gradient_Swatch_2-4)"/><path d="m400 64h64v16h-64z" fill="url(#New_Gradient_Swatch_2-5)"/><path d="m416 96h48v16h-48z" fill="url(#New_Gradient_Swatch_2-6)"/><path d="m440 128h24v16h-24z" fill="url(#New_Gradient_Swatch_2-7)"/><path d="m48 160h32v16h-32z" fill="url(#New_Gradient_Swatch_2-8)"/><path d="m48 192h16v16h-16z" fill="url(#New_Gradient_Swatch_2-9)"/><path d="m48 224h16v16h-16z" fill="url(#New_Gradient_Swatch_2-10)"/><path d="m48 256h32v16h-32z" fill="url(#New_Gradient_Swatch_2-11)"/><path d="m48 288h16v16h-16z" fill="url(#New_Gradient_Swatch_2-12)"/><path d="m48 320h16v16h-16z" fill="url(#New_Gradient_Swatch_2-13)"/><path d="m48 352h32v16h-32z" fill="url(#New_Gradient_Swatch_2-14)"/><path d="m143.011 301.675-11.462 11.462 11.314 11.314 11.462-11.462a152 152 0 0 0 203.35 0l11.462 11.462 11.314-11.314-11.462-11.462a152 152 0 0 0 0-203.35l11.462-11.462-11.314-11.314-11.462 11.462a152 152 0 0 0 -203.35 0l-11.462-11.462-11.314 11.314 11.462 11.462a152 152 0 0 0 0 203.35zm209.155-197.841a136 136 0 1 1 -96.166-39.834 135.1 135.1 0 0 1 96.166 39.834z" fill="url(#New_Gradient_Swatch_2-15)"/><path d="m153 152.517-5.656 14.966 16.376 6.19a95.989 95.989 0 1 0 176.118-20.488l-13.966 7.806a80 80 0 1 1 -147.12 18.363l37.763 14.274a40.076 40.076 0 1 0 5.675-14.96l-37.8-14.288a79.968 79.968 0 0 1 110.622-34.25l7.806-13.966a95.982 95.982 0 0 0 -133.466 42.536zm103 23.483a24 24 0 1 1 -24 24c0-.172.009-.342.013-.514l21.159 8 5.656-14.966-21.15-7.994a23.952 23.952 0 0 1 18.322-8.526z" fill="url(#New_Gradient_Swatch_2-16)"/><path d="m424 304v16a24 24 0 1 1 -20.794 35.994l-13.85 8.012a40 40 0 1 0 34.644-60.006z" fill="url(#New_Gradient_Swatch_2-17)"/><path d="m416 336h16v16h-16z" fill="url(#New_Gradient_Swatch_2-18)"/><path d="m448 272h16v16h-16z" fill="url(#New_Gradient_Swatch_2-19)"/><path d="m448 184h16v72h-16z" fill="url(#New_Gradient_Swatch_2-20)"/><path d="m317.487 148.812 12.284-10.252c-1.848-2.215-3.829-4.382-5.89-6.444s-4.226-4.039-6.441-5.887l-10.252 12.284c1.849 1.543 3.66 3.2 5.379 4.917s3.377 3.533 4.92 5.382z" fill="url(#New_Gradient_Swatch_2-21)"/><path d="m248 368h16v16h-16z" fill="url(#New_Gradient_Swatch_2-22)"/><path d="m280 368h88v16h-88z" fill="url(#New_Gradient_Swatch_2-23)"/><path d="m144 368h88v16h-88z" fill="url(#New_Gradient_Swatch_2-24)"/></svg>