<svg id="GD001" height="512" viewBox="0 0 512 512" width="512" xmlns="http://www.w3.org/2000/svg" xmlns:xlink="http://www.w3.org/1999/xlink"><linearGradient id="New_Gradient_Swatch_2" gradientUnits="userSpaceOnUse" x1="194.193" x2="204.432" y1="5.538" y2="404.85"><stop offset="0" stop-color="#fc5c7d"/><stop offset=".129" stop-color="#f35e85"/><stop offset=".343" stop-color="#d9659b"/><stop offset=".616" stop-color="#b070bf"/><stop offset=".934" stop-color="#777ff0"/><stop offset="1" stop-color="#6a82fb"/></linearGradient><linearGradient id="New_Gradient_Swatch_2-2" x1="281.315" x2="291.554" xlink:href="#New_Gradient_Swatch_2" y1="3.304" y2="402.617"/><linearGradient id="New_Gradient_Swatch_2-3" x1="192.553" x2="202.792" xlink:href="#New_Gradient_Swatch_2" y1="5.58" y2="404.892"/><linearGradient id="New_Gradient_Swatch_2-4" x1="249.951" x2="260.19" xlink:href="#New_Gradient_Swatch_2" y1="4.108" y2="403.421"/><linearGradient id="New_Gradient_Swatch_2-5" x1="302.225" x2="312.464" xlink:href="#New_Gradient_Swatch_2" y1="2.768" y2="402.08"/><linearGradient id="New_Gradient_Swatch_2-6" x1="301.405" x2="311.644" xlink:href="#New_Gradient_Swatch_2" y1="2.789" y2="402.101"/><path d="m200 208a24 24 0 1 0 24 24 24.028 24.028 0 0 0 -24-24zm0 32a8 8 0 1 1 8-8 8.009 8.009 0 0 1 -8 8z" fill="url(#New_Gradient_Swatch_2)"/><path d="m288 216a48 48 0 1 0 48 48 48.053 48.053 0 0 0 -48-48zm0 80a32 32 0 1 1 32-32 32.036 32.036 0 0 1 -32 32z" fill="url(#New_Gradient_Swatch_2-2)"/><path d="m200 272a24 24 0 1 0 24 24 24.028 24.028 0 0 0 -24-24zm0 32a8 8 0 1 1 8-8 8.009 8.009 0 0 1 -8 8z" fill="url(#New_Gradient_Swatch_2-3)"/><path d="m493.831 234.522a8 8 0 0 0 -5.831-2.522h-56v-144a8 8 0 0 0 -8-8h-8v-16h-16v16h-8a8 8 0 0 0 -8 8v48h16v-40h16v112h-16v-32a32.036 32.036 0 0 0 -32-32v-8a24.028 24.028 0 0 0 -24-24h-48a24.028 24.028 0 0 0 -24 24v8h-128a32.036 32.036 0 0 0 -32 32v32h-16v-160h16v88h16v-96a8 8 0 0 0 -8-8h-8v-16h-16v16h-8a8 8 0 0 0 -8 8v192h-56a8 8 0 0 0 -7.984 8.5l16 256 15.968-1-15.468-247.5h16.123l7.422 89.064a52.647 52.647 0 0 0 27.746 42.236 53.212 53.212 0 0 0 20.9 6.11c3.463 23.048 19.588 44.185 46.152 60.164 28.332 17.04 65.671 26.426 105.141 26.426s76.809-9.386 105.139-26.429c26.564-15.979 42.689-37.116 46.152-60.164a53.212 53.212 0 0 0 20.9-6.11 52.647 52.647 0 0 0 27.746-42.233l7.424-89.064h16.123l-15.468 247.5 15.968 1 16-256a8 8 0 0 0 -2.153-5.978zm-77.831-10.522v56h-16v-56zm-283.287 137.868-2.467-9.868h25.119a203.879 203.879 0 0 0 -22.652 9.868zm27.287-25.868v-144h192v144zm221.754 16-2.467 9.868a203.879 203.879 0 0 0 -22.652-9.868zm-93.754-216a8.009 8.009 0 0 1 8-8h48a8.009 8.009 0 0 1 8 8v8h-64zm-160 40a16.019 16.019 0 0 1 16-16h224a16.019 16.019 0 0 1 16 16v160h-16v-152a8 8 0 0 0 -8-8h-208a8 8 0 0 0 -8 8v152h-16zm-16 104h-16v-56h16zm-39.994 55.736-7.311-87.736h15.305v40a8 8 0 0 0 8 8h24v48a8 8 0 0 0 .246 1.939h-.007l5.634 22.535a37.143 37.143 0 0 1 -26.527-3.29 36.228 36.228 0 0 1 -19.34-29.448zm183.994 120.264c-69.812 0-128.164-31.607-135.266-71.768a53.855 53.855 0 0 0 14.13-5.392c32.112-17.81 72.867-26.84 121.136-26.84s89.024 9.03 121.136 26.84a53.829 53.829 0 0 0 14.129 5.393c-7.102 40.161-65.454 71.767-135.265 71.767zm183.994-120.264a36.228 36.228 0 0 1 -19.34 29.449 37.139 37.139 0 0 1 -26.527 3.29l5.634-22.535h-.007a8 8 0 0 0 .246-1.94v-48h24a8 8 0 0 0 8-8v-40h15.305z" fill="url(#New_Gradient_Swatch_2-4)"/><path d="m304 376h16v16h-16z" fill="url(#New_Gradient_Swatch_2-5)"/><path d="m304 408h16v16h-16z" fill="url(#New_Gradient_Swatch_2-6)"/></svg>