<svg id="GD001" height="512" viewBox="0 0 512 512" width="512" xmlns="http://www.w3.org/2000/svg" xmlns:xlink="http://www.w3.org/1999/xlink"><linearGradient id="New_Gradient_Swatch_2" gradientUnits="userSpaceOnUse" x1="393.304" x2="393.304" y1="-13.488" y2="416.541"><stop offset="0" stop-color="#fc5c7d"/><stop offset=".129" stop-color="#f35e85"/><stop offset=".343" stop-color="#d9659b"/><stop offset=".616" stop-color="#b070bf"/><stop offset=".934" stop-color="#777ff0"/><stop offset="1" stop-color="#6a82fb"/></linearGradient><linearGradient id="New_Gradient_Swatch_2-2" x1="402.309" x2="402.309" xlink:href="#New_Gradient_Swatch_2" y1="-13.488" y2="416.541"/><linearGradient id="New_Gradient_Swatch_2-3" x1="233.926" x2="233.926" xlink:href="#New_Gradient_Swatch_2" y1="-13.488" y2="416.541"/><linearGradient id="New_Gradient_Swatch_2-4" x1="159.148" x2="159.148" xlink:href="#New_Gradient_Swatch_2" y1="-13.488" y2="416.541"/><linearGradient id="New_Gradient_Swatch_2-5" x1="279.575" x2="279.575" xlink:href="#New_Gradient_Swatch_2" y1="-13.488" y2="416.541"/><linearGradient id="New_Gradient_Swatch_2-6" x1="479.664" x2="479.664" xlink:href="#New_Gradient_Swatch_2" y1="-13.488" y2="416.541"/><linearGradient id="New_Gradient_Swatch_2-7" x1="295.744" x2="295.744" xlink:href="#New_Gradient_Swatch_2" y1="-13.488" y2="416.541"/><linearGradient id="New_Gradient_Swatch_2-8" x1="42.642" x2="42.642" xlink:href="#New_Gradient_Swatch_2" y1="-13.488" y2="416.541"/><linearGradient id="New_Gradient_Swatch_2-9" x1="80.31" x2="80.31" xlink:href="#New_Gradient_Swatch_2" y1="-13.488" y2="416.541"/><linearGradient id="New_Gradient_Swatch_2-10" x1="207.79" x2="207.79" xlink:href="#New_Gradient_Swatch_2" y1="-13.488" y2="416.541"/><path d="m345.568 126.763a73.348 73.348 0 0 0 48.417-34.12l2.637-4.395a16.985 16.985 0 1 1 23.3 23.3l-4.395 2.637a73.35 73.35 0 0 0 -34.117 48.415l15.69 3.137a57.317 57.317 0 0 1 26.662-37.833l4.393-2.637a32.985 32.985 0 1 0 -45.255-45.25l-2.635 4.394a57.322 57.322 0 0 1 -37.834 26.662z" fill="url(#New_Gradient_Swatch_2)"/><path d="m447.607 337.184a208.584 208.584 0 0 0 -16.892-194.093l-13.43 8.7a192.1 192.1 0 0 1 -8.48 220.483l12.724 9.7a209.464 209.464 0 0 0 19.029-29.894 26.087 26.087 0 1 1 -41.736 29.575 66.212 66.212 0 0 0 -26.564-30.027l-24.142-14.488-8.232 13.72 24.141 14.484a50.289 50.289 0 0 1 20.175 22.805 41.6 41.6 0 0 0 34.41 24.8q2.116.2 4.206.2a41.54 41.54 0 0 0 34.315-17.958 42.06 42.06 0 0 0 -9.525-58.007z" fill="url(#New_Gradient_Swatch_2-2)"/><path d="m120.454 115.769a99.649 99.649 0 0 1 23.956 38.76l15.18-5.058a115.762 115.762 0 0 0 -27.821-45.017l-7.784-7.783a14.624 14.624 0 0 1 -1.08-19.5 14.641 14.641 0 0 1 23.614 1.029l.433.651q-5.967 3.686-11.724 7.785l9.3 13.019a192.137 192.137 0 0 1 211.306-7.691l8.332-13.66a208.31 208.31 0 0 0 -203.25-7.352l-1.085-1.627a30.64 30.64 0 1 0 -47.16 38.661z" fill="url(#New_Gradient_Swatch_2-3)"/><path d="m148.408 470.589c5 2.513 10.157 4.879 15.325 7.032l6.155-14.769c-4.822-2.009-9.631-4.216-14.3-6.56z" fill="url(#New_Gradient_Swatch_2-4)"/><path d="m256 480a223.64 223.64 0 0 1 -71.862-11.774l-5.131 15.155a240.591 240.591 0 0 0 201.137-21.943l-8.288-13.686a223.605 223.605 0 0 1 -115.856 32.248z" fill="url(#New_Gradient_Swatch_2-5)"/><path d="m478.13 164.964-14.8 6.072a222.739 222.739 0 0 1 16.67 84.964 225 225 0 0 1 -6.568 54.075l15.529 3.85a241.216 241.216 0 0 0 -10.831-148.961z" fill="url(#New_Gradient_Swatch_2-6)"/><path d="m256 32a222.948 222.948 0 0 1 81.907 15.445l5.854-14.89a238.87 238.87 0 0 0 -87.761-16.555c-2.766 0-5.55.047-8.273.141l.546 15.99c2.543-.087 5.143-.131 7.727-.131z" fill="url(#New_Gradient_Swatch_2-7)"/><path d="m69.144 132.42-13.337-8.84a239.253 239.253 0 0 0 -39.666 124.149l15.99.542a223.26 223.26 0 0 1 37.013-115.851z" fill="url(#New_Gradient_Swatch_2-8)"/><path d="m61.021 328.6 15-5.585a192.282 192.282 0 0 1 36.6-194.709l-11.944-10.647a208.29 208.29 0 0 0 -39.656 210.941z" fill="url(#New_Gradient_Swatch_2-9)"/><path d="m256 448a192.046 192.046 0 0 1 -158.75-83.973l-13.219 9.014a208.679 208.679 0 0 0 30.313 35.246c-.06.1-.123.2-.183.3l-4.355 7.259a33.272 33.272 0 1 1 -45.65-45.649l7.261-4.355a115.941 115.941 0 0 0 53.931-76.527l-15.69-3.139a99.907 99.907 0 0 1 -46.472 65.945l-7.261 4.356a49.279 49.279 0 0 0 25.244 91.523 50 50 0 0 0 6.126-.377 48.962 48.962 0 0 0 36.231-23.553l3.119-5.2a208.008 208.008 0 0 0 256.94 1.409l-9.822-12.631a190.113 190.113 0 0 1 -117.763 40.352z" fill="url(#New_Gradient_Swatch_2-10)"/></svg>