<?xml version="1.0"?>
<svg xmlns="http://www.w3.org/2000/svg" xmlns:xlink="http://www.w3.org/1999/xlink" id="GD001" viewBox="0 0 512 512" width="512" height="512"><defs><linearGradient id="New_Gradient_Swatch_2" x1="295.587" y1="147.119" x2="308.547" y2="425.755" gradientUnits="userSpaceOnUse"><stop offset="0" stop-color="#fc5c7d"/><stop offset="0.129" stop-color="#f35e85"/><stop offset="0.343" stop-color="#d9659b"/><stop offset="0.616" stop-color="#b070bf"/><stop offset="0.934" stop-color="#777ff0"/><stop offset="1" stop-color="#6a82fb"/></linearGradient><linearGradient id="New_Gradient_Swatch_2-2" x1="306.911" y1="146.592" x2="319.871" y2="425.228" xlink:href="#New_Gradient_Swatch_2"/><linearGradient id="New_Gradient_Swatch_2-3" x1="234.164" y1="149.976" x2="247.124" y2="428.612" xlink:href="#New_Gradient_Swatch_2"/><linearGradient id="New_Gradient_Swatch_2-4" x1="250.385" y1="149.222" x2="263.345" y2="427.858" xlink:href="#New_Gradient_Swatch_2"/></defs><path d="M304,352a24,24,0,1,0-24-24A24.027,24.027,0,0,0,304,352Zm0-32a8,8,0,1,1-8,8A8.009,8.009,0,0,1,304,320Z" style="fill:url(#New_Gradient_Swatch_2)"/><path d="M312,288a32,32,0,1,0-32-32A32.036,32.036,0,0,0,312,288Zm0-48a16,16,0,1,1-16,16A16.019,16.019,0,0,1,312,240Z" style="fill:url(#New_Gradient_Swatch_2-2)"/><path d="M256,56C165.455,56,89.98,121.743,74.791,208H56V64H80v72H96V24a8,8,0,0,0-8-8H48a8,8,0,0,0-8,8V314.65a23.981,23.981,0,0,0,19.709,23.611l57.68,10.49L136,456.685V496h16V456a8.026,8.026,0,0,0-.116-1.359L121.361,277.625l13.165,6.582a36.864,36.864,0,0,1,20.226,29.008L168,432.444V448a24.028,24.028,0,0,0,24,24H320a24.028,24.028,0,0,0,24-24V432.444l13.248-119.229a36.864,36.864,0,0,1,20.226-29.008l13.165-6.582L360.116,454.641A8.026,8.026,0,0,0,360,456v40h16V456.685L408.407,268.74l27.171-13.585A8,8,0,0,0,440,248v-8C440,138.542,357.458,56,256,56ZM80,32V48H56V32ZM72.7,224c-.457,5.275-.7,10.609-.7,16H56V224ZM56,314.65V288h8a8.009,8.009,0,0,1,8,8v28.234l-9.432-1.715A7.992,7.992,0,0,1,56,314.65Zm58.494,17.312L88,327.144V296a24.027,24.027,0,0,0-24-24H56V256H78.112l25.481,12.74ZM152,276.67V240a104.629,104.629,0,0,1,59.44-93.962l-6.88-14.445A120.144,120.144,0,0,0,136,240v27.056l-16-8V240A136.252,136.252,0,0,1,225.777,107.384l-3.554-15.6A152.255,152.255,0,0,0,104,240v11.056l-16-8V240c0-92.636,75.364-168,168-168a168.161,168.161,0,0,1,32,3.071V192H256a8,8,0,0,0-8,8V376a8,8,0,0,0,8,8h77.284l-4.444,40H312V408a8,8,0,0,0-8-8H208a8,8,0,0,0-8,8v16H183.16l-12.5-112.552A52.769,52.769,0,0,0,152,276.67Zm205.116,2.577a52.8,52.8,0,0,0-15.771,32.2L335.062,368H264V208H366.834ZM328,448a8.009,8.009,0,0,1-8,8H192a8.009,8.009,0,0,1-8-8v-8h24a8,8,0,0,0,8-8V416h80v16a8,8,0,0,0,8,8h24Zm96-204.944-49.151,24.575,9.078-66.55A8,8,0,0,0,376,192H304V79c69.32,20.7,120,85.04,120,161Z" style="fill:url(#New_Gradient_Swatch_2-3)"/><path d="M256,104V88a153.459,153.459,0,0,0-16.882.932l1.764,15.9A137.73,137.73,0,0,1,256,104Z" style="fill:url(#New_Gradient_Swatch_2-4)"/></svg>
