<svg id="GD001" enable-background="new 0 0 512 512" height="512" viewBox="0 0 512 512" width="512" xmlns="http://www.w3.org/2000/svg" xmlns:xlink="http://www.w3.org/1999/xlink"><linearGradient id="lg1"><stop offset="0" stop-color="#fc5c7d"/><stop offset=".129" stop-color="#f35e85"/><stop offset=".343" stop-color="#d9659b"/><stop offset=".616" stop-color="#b070bf"/><stop offset=".934" stop-color="#777ff0"/><stop offset="1" stop-color="#6a82fb"/></linearGradient><linearGradient id="SVGID_1_" gradientUnits="userSpaceOnUse" x1="488" x2="488" xlink:href="#lg1" y1="98.598" y2="413.843"/><linearGradient id="SVGID_3_" gradientUnits="userSpaceOnUse" x1="256" x2="256" xlink:href="#lg1" y1="98.598" y2="413.843"/><linearGradient id="SVGID_4_" gradientUnits="userSpaceOnUse" x1="464.005" x2="464.005" xlink:href="#lg1" y1="98.598" y2="413.842"/><linearGradient id="SVGID_5_" gradientUnits="userSpaceOnUse" x1="440" x2="440" xlink:href="#lg1" y1="98.598" y2="413.843"/><linearGradient id="SVGID_6_" gradientUnits="userSpaceOnUse" x1="423.895" x2="423.895" xlink:href="#lg1" y1="98.598" y2="413.843"/><linearGradient id="SVGID_7_" gradientUnits="userSpaceOnUse" x1="419.55" x2="419.55" xlink:href="#lg1" y1="98.598" y2="413.843"/><linearGradient id="SVGID_8_" gradientUnits="userSpaceOnUse" x1="408" x2="408" xlink:href="#lg1" y1="98.598" y2="413.843"/><linearGradient id="SVGID_9_" gradientUnits="userSpaceOnUse" x1="376.945" x2="376.945" xlink:href="#lg1" y1="98.599" y2="413.844"/><linearGradient id="SVGID_10_" gradientUnits="userSpaceOnUse" x1="333.57" x2="333.57" xlink:href="#lg1" y1="98.598" y2="413.843"/><linearGradient id="SVGID_11_" gradientUnits="userSpaceOnUse" x1="321.6" x2="321.6" xlink:href="#lg1" y1="98.598" y2="413.843"/><linearGradient id="SVGID_12_" gradientUnits="userSpaceOnUse" x1="190.395" x2="190.395" xlink:href="#lg1" y1="98.598" y2="413.843"/><linearGradient id="SVGID_13_" gradientUnits="userSpaceOnUse" x1="178.43" x2="178.43" xlink:href="#lg1" y1="98.598" y2="413.843"/><linearGradient id="SVGID_14_" gradientUnits="userSpaceOnUse" x1="135.06" x2="135.06" xlink:href="#lg1" y1="98.597" y2="413.842"/><linearGradient id="SVGID_15_" gradientUnits="userSpaceOnUse" x1="92.45" x2="92.45" xlink:href="#lg1" y1="98.598" y2="413.843"/><linearGradient id="SVGID_16_" gradientUnits="userSpaceOnUse" x1="104" x2="104" xlink:href="#lg1" y1="98.598" y2="413.843"/><linearGradient id="SVGID_17_" gradientUnits="userSpaceOnUse" x1="88.105" x2="88.105" xlink:href="#lg1" y1="98.598" y2="413.843"/><linearGradient id="SVGID_18_" gradientUnits="userSpaceOnUse" x1="72" x2="72" xlink:href="#lg1" y1="98.598" y2="413.843"/><linearGradient id="SVGID_19_" gradientUnits="userSpaceOnUse" x1="48" x2="48" xlink:href="#lg1" y1="98.6" y2="413.845"/><linearGradient id="SVGID_20_" gradientUnits="userSpaceOnUse" x1="24" x2="24" xlink:href="#lg1" y1="98.598" y2="413.843"/><g><g id="XMLID_1_"><path d="m480 432h16v16h-16z" fill="url(#SVGID_1_)"/><path d="m480 400h16v16h-16z" fill="url(#SVGID_1_)"/><path d="m496 384h-16c-.03-57.31-30.7-110.23-80.4-138.76.27 3.55.4 7.14.4 10.76.03 28.04-8.17 55.47-23.59 78.88 12.35 27.65 16.98 58.12 13.4 88.19l-2.1 17.86-15.89-1.86 2.1-17.87c2.87-24.17-.12-48.68-8.7-71.46-20.46 23.86-48.15 40.37-78.87 47.03-28.57 58.69-88.81 99.23-158.35 99.23v-16c57.31-.03 110.23-30.7 138.76-80.4-3.55.27-7.14.4-10.76.4-28.04.03-55.46-8.17-78.88-23.59-21.5 9.61-44.79 14.58-68.35 14.57-6.63 0-13.25-.39-19.84-1.17l-17.87-2.1 1.87-15.89 17.87 2.1c24.17 2.87 48.68-.11 71.46-8.7-23.86-20.46-40.37-48.15-47.03-78.87-58.69-28.57-99.23-88.81-99.23-158.35h16c.03 57.31 30.7 110.23 80.4 138.76-.27-3.55-.4-7.14-.4-10.76-.03-28.04 8.17-55.47 23.59-78.88-12.35-27.65-16.98-58.12-13.4-88.19l2.1-17.87 15.89 1.87-2.1 17.87c-2.87 24.17.12 48.68 8.7 71.46 20.46-23.86 48.15-40.37 78.87-47.03 28.57-58.69 88.81-99.23 158.35-99.23v16c-57.31.03-110.23 30.7-138.76 80.4 3.55-.27 7.14-.4 10.76-.4 28.04-.03 55.47 8.17 78.88 23.59 27.65-12.35 58.12-16.98 88.19-13.4l17.86 2.1-1.86 15.89-17.87-2.1c-24.17-2.87-48.68.11-71.46 8.7 23.86 20.46 40.37 48.15 47.03 78.87 58.69 28.57 99.23 88.81 99.23 158.35zm-128.17-65.78c10.63-19.01 16.19-40.44 16.17-62.22 0-6.45-.48-12.89-1.45-19.26-11.31-4.82-23.13-8.31-35.24-10.4 6.64 20.47 6.22 42.58-1.2 62.78 8.27 8.88 15.55 18.64 21.72 29.1zm10.38-100.31c-7.98-25.41-23.65-47.71-44.85-63.82-10.22 5.32-19.8 11.78-28.56 19.27 14.58 8.65 26.63 20.98 34.94 35.75 13.12 1.47 26.02 4.42 38.47 8.8zm-20.3 115.45c-5.32-10.22-11.78-19.8-19.27-28.56-8.65 14.58-20.98 26.63-35.75 34.94-1.47 13.12-4.42 26.02-8.8 38.47 25.41-7.97 47.71-23.65 63.82-44.85zm-24.65-56.65c4.68-17.4 3.33-35.88-3.83-52.42-3.12-.19-6.26-.29-9.43-.29h-28.26c7 7.79 11.25 17.67 12.09 28.11l26.66 22.22c.94.78 1.86 1.59 2.77 2.38zm-6.19 15.95c-2.2-2.07-4.48-4.09-6.82-6.04l-16.25-13.54v46.88c9.64-7.26 17.52-16.59 23.07-27.3zm-53.99-84.66h46.88c-7.26-9.64-16.59-17.52-27.3-23.07-2.07 2.2-4.09 4.48-6.04 6.82zm16.04-42.11c8.88-8.27 18.64-15.55 29.1-21.71-19.01-10.64-40.44-16.2-62.22-16.18-6.45 0-12.89.48-19.26 1.45-4.82 11.31-8.31 23.13-10.4 35.24 20.47-6.64 42.58-6.22 62.78 1.2zm-1.12 154.11v-28.26c-7.79 7-17.67 11.25-28.11 12.09l-22.22 26.66c-.78.94-1.58 1.86-2.38 2.78 17.41 4.67 35.89 3.32 52.42-3.84.19-3.12.29-6.26.29-9.43zm-12.74 62.55c4.82-11.3 8.31-23.13 10.4-35.24-20.47 6.64-42.59 6.22-62.79-1.2-8.89 8.26-18.64 15.54-29.1 21.71 19.01 10.63 40.44 16.2 62.23 16.18 6.45 0 12.88-.48 19.26-1.45zm-19.26-94.55c17.67 0 32-14.33 32-32-.02-17.66-14.34-31.98-32-32-17.67 0-32 14.33-32 32s14.33 32 32 32zm18.33-106.49c.78-.94 1.59-1.86 2.38-2.77-17.4-4.68-35.88-3.33-52.42 3.83-.19 3.12-.29 6.26-.29 9.43v28.26c7.79-7 17.67-11.25 28.11-12.09zm-48.95 138.74 13.54-16.25h-46.88c7.26 9.64 16.59 17.52 27.3 23.07 2.07-2.2 4.09-4.48 6.04-6.82zm-33.38-32.25h28.26c-7-7.79-11.25-17.67-12.09-28.11l-26.66-22.22c-.94-.78-1.86-1.58-2.77-2.38-1.82 6.75-2.74 13.72-2.74 20.71-.01 10.91 2.23 21.71 6.57 31.71 3.12.19 6.26.29 9.43.29zm17.11-115.75c1.47-13.11 4.42-26.01 8.8-38.46-25.41 7.97-47.71 23.65-63.82 44.85 5.32 10.22 11.78 19.8 19.27 28.56 8.65-14.58 20.98-26.63 35.75-34.95zm-1.11 66.67v-46.88c-9.64 7.26-17.52 16.59-23.07 27.3 2.2 2.07 4.48 4.09 6.82 6.04zm-29.36 118.99c10.22-5.32 19.81-11.78 28.56-19.27-14.58-8.65-26.63-20.98-34.95-35.75-13.11-1.47-26.01-4.42-38.46-8.8 7.97 25.41 23.65 47.71 44.85 63.82zm-13.95-72.25c-6.64-20.47-6.22-42.58 1.2-62.78-8.27-8.88-15.55-18.64-21.71-29.1-10.64 19.01-16.2 40.44-16.18 62.22 0 6.45.48 12.89 1.45 19.26 11.31 4.82 23.13 8.31 35.24 10.4z" fill="url(#SVGID_3_)"/><path d="m472.94 128.06-1.87 15.89-16-1.89 1.87-15.89z" fill="url(#SVGID_4_)"/><path d="m432 16h16v16h-16z" fill="url(#SVGID_5_)"/><path d="m446.39 230.97-15.87 2.06c-3.6-27.34-13.57-53.46-29.12-76.24l13.2-9.03c16.97 24.86 27.86 53.36 31.79 83.21z" fill="url(#SVGID_6_)"/><path d="m427.83 294.27 15.62 3.46c-6.02 27.33-18.01 52.99-35.11 75.14l-12.69-9.74c15.67-20.31 26.66-43.82 32.18-68.86z" fill="url(#SVGID_7_)"/><path d="m400 16h16v16h-16z" fill="url(#SVGID_8_)"/><path d="m385.83 456.94-1.88 16-15.89-1.87 1.88-16z" fill="url(#SVGID_9_)"/><path d="m372.87 103.66-9.74 12.69c-20.31-15.67-43.82-26.66-68.86-32.18l3.46-15.62c27.33 6.02 52.99 18.01 75.14 35.11z" fill="url(#SVGID_10_)"/><path d="m355.2 401.4 9.03 13.2c-24.86 16.97-53.36 27.85-83.2 31.78l-2.06-15.86c27.34-3.6 53.45-13.58 76.23-29.12z" fill="url(#SVGID_11_)"/><path d="m230.97 65.62 2.06 15.86c-27.34 3.6-53.46 13.58-76.24 29.13l-9.03-13.21c24.86-16.97 53.36-27.85 83.21-31.78z" fill="url(#SVGID_12_)"/><path d="m217.73 427.83-3.46 15.62c-27.33-6.02-52.99-18.01-75.14-35.11l9.74-12.69c20.31 15.67 43.82 26.66 68.86 32.18z" fill="url(#SVGID_13_)"/><path d="m143.95 40.94-1.89 15.99-15.89-1.86 1.89-16z" fill="url(#SVGID_14_)"/><path d="m103.66 139.13 12.69 9.74c-15.67 20.31-26.66 43.82-32.18 68.86l-15.62-3.46c6.02-27.33 18.01-52.99 35.11-75.14z" fill="url(#SVGID_15_)"/><path d="m96 480h16v16h-16z" fill="url(#SVGID_16_)"/><path d="m110.6 355.21-13.21 9.02c-16.96-24.86-27.85-53.36-31.78-83.2l15.87-2.06c3.6 27.34 13.57 53.46 29.12 76.24z" fill="url(#SVGID_17_)"/><path d="m64 480h16v16h-16z" fill="url(#SVGID_18_)"/><path d="m56.93 369.94-1.87 15.89-15.99-1.88 1.86-15.89z" fill="url(#SVGID_19_)"/><g fill="url(#SVGID_20_)"><path d="m16 96h16v16h-16z"/><path d="m16 64h16v16h-16z"/></g></g></g></svg>