<?xml version="1.0"?>
<svg xmlns="http://www.w3.org/2000/svg" xmlns:xlink="http://www.w3.org/1999/xlink" id="GD001" viewBox="0 0 512 512" width="512" height="512"><defs><linearGradient id="New_Gradient_Swatch_2" x1="256" y1="98.598" x2="256" y2="413.843" gradientUnits="userSpaceOnUse"><stop offset="0" stop-color="#fc5c7d"/><stop offset="0.129" stop-color="#f35e85"/><stop offset="0.343" stop-color="#d9659b"/><stop offset="0.616" stop-color="#b070bf"/><stop offset="0.934" stop-color="#777ff0"/><stop offset="1" stop-color="#6a82fb"/></linearGradient><linearGradient id="New_Gradient_Swatch_2-3" x1="296" y1="98.598" x2="296" y2="413.843" xlink:href="#New_Gradient_Swatch_2"/><linearGradient id="New_Gradient_Swatch_2-4" x1="216" y1="98.598" x2="216" y2="413.843" xlink:href="#New_Gradient_Swatch_2"/></defs><path d="M456,232H445.822C438.608,199.325,413.6,169.481,376,148.816V120a8,8,0,0,0-8-8V40a8,8,0,0,0-8-8h-8V16H336V32h-8a8,8,0,0,0-8,8v72a8,8,0,0,0-8,8v5.675c-7.459-1.553-15.078-2.784-22.784-3.7l-1.234-18.508A8,8,0,0,0,280,96H232a8,8,0,0,0-7.982,7.468l-1.234,18.508c-7.706.915-15.325,2.146-22.784,3.7V120a8,8,0,0,0-8-8V40a8,8,0,0,0-8-8h-8V16H160V32h-8a8,8,0,0,0-8,8v72a8,8,0,0,0-8,8v28.816C98.4,169.481,73.392,199.325,66.178,232H56a8,8,0,0,0-8,8v32a8,8,0,0,0,8,8h8v24a8,8,0,0,0,6.868,7.919L88,314.367V328h16V316.653l18.719,2.674,6.126,12.251A8,8,0,0,0,136,336h8v16h16V336h19.719l13.625,20.438A8,8,0,0,0,200,360h16v16H200a8,8,0,0,0-7.428,5.029l-14.5,36.247H160V400H144v17.276H128V400H112v17.276H96a8,8,0,0,0-6.11,13.164c16.651,19.7,40.616,36.19,69.3,47.674C188.425,489.815,221.9,496,256,496s67.575-6.185,96.807-17.886c28.686-11.484,52.651-27.969,69.3-47.674A8,8,0,0,0,416,417.277H400V400H384v17.277H368V400H352v17.277H333.927l-14.5-36.248A8,8,0,0,0,312,376H296V360h16a8,8,0,0,0,6.656-3.562L332.281,336H352v16h16V336h8a8,8,0,0,0,7.155-4.422l6.126-12.251L408,316.653V328h16V314.367l17.132-2.448A8,8,0,0,0,448,304V280h8a8,8,0,0,0,8-8V240A8,8,0,0,0,456,232ZM328,128h32v36.843A19.179,19.179,0,0,1,340.843,184,12.858,12.858,0,0,1,328,171.157Zm8-80h16v64H336Zm-24,94.048v29.109A28.875,28.875,0,0,0,340.843,200a35.2,35.2,0,0,0,35.063-32.723c27.957,17.247,46.828,40.084,53.444,64.723H328v-8a8,8,0,0,0-8-8,26.272,26.272,0,0,1-26.146-24.461L290.3,138.224C297.658,139.186,304.911,140.47,312,142.048ZM234.111,192.6l5.373-80.6h33.032l5.373,80.6A42.351,42.351,0,0,0,312,231.234V264H200V231.234A42.351,42.351,0,0,0,234.111,192.6ZM288,280a32,32,0,0,1-64,0ZM152,128h32v43.157A12.858,12.858,0,0,1,171.157,184,19.179,19.179,0,0,1,152,164.843Zm8-80h16v64H160ZM136.094,167.277A35.2,35.2,0,0,0,171.157,200,28.875,28.875,0,0,0,200,171.157V142.048c7.089-1.578,14.342-2.862,21.7-3.824l-3.555,53.315A26.272,26.272,0,0,1,192,216a8,8,0,0,0-8,8v8H82.65C89.266,207.361,108.137,184.524,136.094,167.277ZM64,248H184v16H64Zm16,32h40v22.776l-40-5.714ZM256,480c-55.755,0-107.876-17.574-140.945-46.724H396.944C363.874,462.423,311.75,480,256,480ZM316.7,417.277H195.306L205.416,392H306.584ZM280,376H232V360h48Zm91.056-56H336V296H320v29.578L307.719,344H204.281L192,325.578V296H176v24H140.944L136,310.112V280h72a48,48,0,0,0,96,0h72v30.112ZM432,297.062l-40,5.714V280h40ZM448,264H328V248H448Z" style="fill:url(#New_Gradient_Swatch_2)"/><rect x="248" y="448" width="16" height="16" style="fill:url(#New_Gradient_Swatch_2)"/><rect x="288" y="448" width="16" height="16" style="fill:url(#New_Gradient_Swatch_2-3)"/><rect x="208" y="448" width="16" height="16" style="fill:url(#New_Gradient_Swatch_2-4)"/></svg>
