<svg id="GD001" height="512" viewBox="0 0 512 512" width="512" xmlns="http://www.w3.org/2000/svg" xmlns:xlink="http://www.w3.org/1999/xlink"><linearGradient id="New_Gradient_Swatch_2" gradientUnits="userSpaceOnUse" x1="256" x2="256" y1="98.598" y2="413.843"><stop offset="0" stop-color="#fc5c7d"/><stop offset=".129" stop-color="#f35e85"/><stop offset=".343" stop-color="#d9659b"/><stop offset=".616" stop-color="#b070bf"/><stop offset=".934" stop-color="#777ff0"/><stop offset="1" stop-color="#6a82fb"/></linearGradient><linearGradient id="New_Gradient_Swatch_2-3" x1="284" x2="284" xlink:href="#New_Gradient_Swatch_2" y1="98.598" y2="413.843"/><path d="m248 64h16v16h-16z" fill="url(#New_Gradient_Swatch_2)"/><path d="m248 96h16v16h-16z" fill="url(#New_Gradient_Swatch_2)"/><path d="m400 48a40.067 40.067 0 0 0 -39.195 32h-16.805v-8a8 8 0 0 0 -6.685-7.891l-41.315-6.886v-17.223a8 8 0 0 0 -8-8h-64a8 8 0 0 0 -8 8v88h-34.063a29.97 29.97 0 0 0 -29.937 29.936v2.064a24.027 24.027 0 0 0 -24 24v32a24.027 24.027 0 0 0 24 24v24a24.027 24.027 0 0 0 -24 24v32a24.027 24.027 0 0 0 24 24v24a24.027 24.027 0 0 0 -24 24v32a24.027 24.027 0 0 0 24 24v2.064a29.97 29.97 0 0 0 29.937 29.936h148.126a29.97 29.97 0 0 0 29.937-29.936v-2.064a24.027 24.027 0 0 0 24-24v-32a24.027 24.027 0 0 0 -24-24v-24a24.027 24.027 0 0 0 24-24v-32a24.027 24.027 0 0 0 -24-24v-24a24.027 24.027 0 0 0 24-24v-32a24.027 24.027 0 0 0 -24-24v-2.064a29.97 29.97 0 0 0 -29.937-29.936h-34.063v-9.223l41.315-6.886a8 8 0 0 0 6.685-7.891v-8h16.805a40 40 0 1 0 39.195-48zm-56 402.064a13.952 13.952 0 0 1 -13.937 13.936h-148.126a13.952 13.952 0 0 1 -13.937-13.936v-2.064h176zm24-58.064v8h-16v16h16v8a8.009 8.009 0 0 1 -8 8h-208a8.009 8.009 0 0 1 -8-8v-8h16v-16h-16v-8a8.009 8.009 0 0 1 8-8h208a8.009 8.009 0 0 1 8 8zm-24-24h-176v-24h176zm24-80v8h-16v16h16v8a8.009 8.009 0 0 1 -8 8h-208a8.009 8.009 0 0 1 -8-8v-8h16v-16h-16v-8a8.009 8.009 0 0 1 8-8h208a8.009 8.009 0 0 1 8 8zm-24-24h-176v-24h176zm24-80v8h-16v16h16v8a8.009 8.009 0 0 1 -8 8h-208a8.009 8.009 0 0 1 -8-8v-8h16v-16h-16v-8a8.009 8.009 0 0 1 8-8h208a8.009 8.009 0 0 1 8 8zm-24-26.064v2.064h-176v-2.064a13.952 13.952 0 0 1 13.937-13.936h148.126a13.952 13.952 0 0 1 13.937 13.936zm-112-29.936v-80h48v80zm96-30.777-32 5.333v-29.112l32 5.333zm72 14.777a24 24 0 1 1 24-24 24.028 24.028 0 0 1 -24 24z" fill="url(#New_Gradient_Swatch_2-3)"/><g fill="url(#New_Gradient_Swatch_2)"><path d="m192 192h128v16h-128z"/><path d="m192 296h128v16h-128z"/><path d="m192 400h128v16h-128z"/></g></svg>