<svg id="GD001" height="512" viewBox="0 0 512 512" width="512" xmlns="http://www.w3.org/2000/svg" xmlns:xlink="http://www.w3.org/1999/xlink"><linearGradient id="New_Gradient_Swatch_2" gradientUnits="userSpaceOnUse" x1="256" x2="256" y1="73.814" y2="406.575"><stop offset="0" stop-color="#fc5c7d"/><stop offset=".129" stop-color="#f35e85"/><stop offset=".343" stop-color="#d9659b"/><stop offset=".616" stop-color="#b070bf"/><stop offset=".934" stop-color="#777ff0"/><stop offset="1" stop-color="#6a82fb"/></linearGradient><linearGradient id="New_Gradient_Swatch_2-3" x1="224" x2="224" xlink:href="#New_Gradient_Swatch_2" y1="73.814" y2="406.575"/><linearGradient id="New_Gradient_Swatch_2-5" x1="288" x2="288" xlink:href="#New_Gradient_Swatch_2" y1="73.814" y2="406.575"/><linearGradient id="New_Gradient_Swatch_2-9" x1="56" x2="56" xlink:href="#New_Gradient_Swatch_2" y1="73.814" y2="406.575"/><linearGradient id="New_Gradient_Swatch_2-13" x1="456" x2="456" xlink:href="#New_Gradient_Swatch_2" y1="73.814" y2="406.575"/><path d="m256 304a48 48 0 1 0 -48-48 48.055 48.055 0 0 0 48 48zm0-80a32 32 0 1 1 -32 32 32.036 32.036 0 0 1 32-32z" fill="url(#New_Gradient_Swatch_2)"/><path d="m256 336a80 80 0 1 0 -80-80 80.091 80.091 0 0 0 80 80zm0-144a64 64 0 1 1 -64 64 64.072 64.072 0 0 1 64-64z" fill="url(#New_Gradient_Swatch_2)"/><path d="m216 448h16v16h-16z" fill="url(#New_Gradient_Swatch_2-3)"/><path d="m248 448h16v16h-16z" fill="url(#New_Gradient_Swatch_2)"/><path d="m280 448h16v16h-16z" fill="url(#New_Gradient_Swatch_2-5)"/><path d="m216 48h16v16h-16z" fill="url(#New_Gradient_Swatch_2-3)"/><path d="m248 48h16v16h-16z" fill="url(#New_Gradient_Swatch_2)"/><path d="m280 48h16v16h-16z" fill="url(#New_Gradient_Swatch_2-5)"/><g fill="url(#New_Gradient_Swatch_2-9)"><path d="m48 216h16v16h-16z"/><path d="m48 248h16v16h-16z"/><path d="m48 280h16v16h-16z"/></g><path d="m488 184h-24v-16h-16v16h-24a8 8 0 0 0 -8 8v16h-24.216a143.133 143.133 0 0 0 -9.679-21.537l9.65-9.65.009-.009c6.265-6.265 9.048-15.529 7.636-25.416a43.972 43.972 0 0 0 -8.087-19.388l11.765-11.766-11.313-11.313-11.765 11.766a43.972 43.972 0 0 0 -19.387-8.087c-9.888-1.41-19.151 1.371-25.416 7.636l-9.659 9.659a143.188 143.188 0 0 0 -21.538-9.679v-24.216h16a8 8 0 0 0 8-8v-24h16v-16h-16v-24a8 8 0 0 0 -8-8h-128a8 8 0 0 0 -8 8v24h-16v16h16v24a8 8 0 0 0 8 8h16v24.216a143.188 143.188 0 0 0 -21.537 9.679l-9.651-9.651-.008-.008c-6.265-6.265-15.53-9.049-25.416-7.636a43.972 43.972 0 0 0 -19.388 8.087l-11.766-11.765-11.313 11.313 11.766 11.765a43.972 43.972 0 0 0 -8.087 19.387c-1.412 9.887 1.371 19.151 7.636 25.416l9.659 9.659a143.133 143.133 0 0 0 -9.679 21.538h-24.216v-16a8 8 0 0 0 -8-8h-24v-16h-16v16h-24a8 8 0 0 0 -8 8v128a8 8 0 0 0 8 8h24v16h16v-16h24a8 8 0 0 0 8-8v-16h24.216a143.133 143.133 0 0 0 9.679 21.537l-9.651 9.651-.008.008c-6.265 6.265-9.048 15.529-7.636 25.416a43.972 43.972 0 0 0 8.087 19.388l-11.765 11.766 11.313 11.313 11.765-11.766a43.972 43.972 0 0 0 19.387 8.087 35.406 35.406 0 0 0 5 .36 28.489 28.489 0 0 0 20.416-8l9.659-9.659a143.188 143.188 0 0 0 21.538 9.683v24.216h-16a8 8 0 0 0 -8 8v24h-16v16h16v24a8 8 0 0 0 8 8h128a8 8 0 0 0 8-8v-24h16v-16h-16v-24a8 8 0 0 0 -8-8h-16v-24.216a143.188 143.188 0 0 0 21.537-9.679l9.651 9.651.008.008a28.488 28.488 0 0 0 20.416 8 35.406 35.406 0 0 0 5-.36 43.972 43.972 0 0 0 19.388-8.091l11.766 11.765 11.313-11.313-11.766-11.765a43.972 43.972 0 0 0 8.087-19.387c1.412-9.887-1.371-19.151-7.636-25.416l-9.659-9.659a143.133 143.133 0 0 0 9.679-21.538h24.216v16a8 8 0 0 0 8 8h24v16h16v-16h24a8 8 0 0 0 8-8v-128a8 8 0 0 0 -8-8zm-408 128h-48v-112h48zm248.412-162.136a48.6 48.6 0 0 0 33.723 33.724c-3.524 2.487-7.975 2.341-10.494 1.983-5.693-.814-11.687-4.009-16.445-8.767s-7.953-10.752-8.767-16.445c-.359-2.519-.505-6.971 1.983-10.495zm27.142-21.627a20.034 20.034 0 0 1 2.8.2 27.183 27.183 0 0 1 10.1 3.8l-10.627 10.628 11.313 11.313 10.628-10.627a27.183 27.183 0 0 1 3.8 10.1c.407 2.852.545 8.184-3.11 11.839-3.656 3.655-8.988 3.516-11.84 3.11-5.693-.813-11.686-4.008-16.444-8.767s-7.954-10.751-8.767-16.444c-.408-2.853-.546-8.184 3.11-11.84a12.528 12.528 0 0 1 9.037-3.312zm-155.554-96.237h112v48h-112zm24 64h64v19.606a143.789 143.789 0 0 0 -64 0zm-40.412 53.864c2.488 3.524 2.342 7.976 1.983 10.5-.814 5.693-4.009 11.687-8.767 16.445s-10.752 7.953-16.445 8.767c-2.518.36-6.97.5-10.494-1.983a48.6 48.6 0 0 0 33.723-33.724zm-40.725 4.312 11.313-11.313-10.627-10.628a27.183 27.183 0 0 1 10.1-3.8 20.022 20.022 0 0 1 2.795-.2 12.533 12.533 0 0 1 9.044 3.312c3.656 3.656 3.518 8.987 3.11 11.84-.813 5.693-4.008 11.686-8.767 16.444s-10.751 7.954-16.444 8.767c-2.853.408-8.184.546-11.84-3.11s-3.517-8.987-3.11-11.839a27.183 27.183 0 0 1 3.8-10.1zm-46.863 133.824v-64h19.606a143.789 143.789 0 0 0 0 64zm46.085-90.407a29.534 29.534 0 0 0 15.422 4.1c10.375 0 21.681-4.649 30.611-13.579 13.736-13.736 17.336-33.088 9.476-46.033a128.138 128.138 0 0 1 116.812 0c-7.86 12.945-4.26 32.3 9.476 46.033 8.931 8.93 20.235 13.579 30.611 13.579a29.534 29.534 0 0 0 15.422-4.1 128.14 128.14 0 0 1 0 116.813c-12.946-7.861-32.3-4.261-46.033 9.476s-17.336 33.088-9.476 46.033a128.138 128.138 0 0 1 -116.812 0c7.86-12.945 4.26-32.3-9.476-46.033s-33.088-17.337-46.033-9.476a128.14 128.14 0 0 1 0-116.813zm186.327 164.543c-2.488-3.524-2.342-7.976-1.983-10.5.814-5.693 4.009-11.687 8.767-16.445s10.752-7.953 16.445-8.767c2.519-.359 6.971-.5 10.494 1.983a48.6 48.6 0 0 0 -33.723 33.724zm-144.824 0a48.6 48.6 0 0 0 -33.724-33.724c3.524-2.488 7.975-2.343 10.5-1.983 5.693.814 11.687 4.009 16.445 8.767s7.953 10.752 8.767 16.445c.354 2.519.5 6.971-1.988 10.495zm-18.1 18.315c-3.656 3.655-8.986 3.515-11.839 3.11a27.183 27.183 0 0 1 -10.1-3.8l10.627-10.628-11.313-11.313-10.628 10.627a27.183 27.183 0 0 1 -3.8-10.1c-.407-2.852-.545-8.184 3.11-11.839a12.529 12.529 0 0 1 9.045-3.312 19.882 19.882 0 0 1 2.8.2c5.693.813 11.686 4.008 16.444 8.767s7.954 10.751 8.767 16.444c.408 2.853.546 8.184-3.11 11.84zm146.512 99.549h-112v-48h112zm-24-64h-64v-19.606a143.789 143.789 0 0 0 64 0zm95.561-57.651a27.183 27.183 0 0 1 -3.8 10.1l-10.628-10.627-11.313 11.313 10.627 10.628a27.183 27.183 0 0 1 -10.1 3.8c-2.853.407-8.183.546-11.839-3.11s-3.518-8.987-3.11-11.84c.813-5.693 4.008-11.686 8.767-16.444s10.751-7.954 16.444-8.767a19.894 19.894 0 0 1 2.8-.2 12.529 12.529 0 0 1 9.045 3.312c3.652 3.651 3.514 8.986 3.107 11.835zm12.833-70.349a143.789 143.789 0 0 0 0-64h19.606v64zm83.606 24h-48v-112h48z" fill="url(#New_Gradient_Swatch_2)"/><path d="m448 216h16v16h-16z" fill="url(#New_Gradient_Swatch_2-13)"/><path d="m448 248h16v16h-16z" fill="url(#New_Gradient_Swatch_2-13)"/><path d="m448 280h16v16h-16z" fill="url(#New_Gradient_Swatch_2-13)"/></svg>