<svg id="GD001" height="512" viewBox="0 0 512 512" width="512" xmlns="http://www.w3.org/2000/svg" xmlns:xlink="http://www.w3.org/1999/xlink"><linearGradient id="New_Gradient_Swatch_2" gradientUnits="userSpaceOnUse" x1="200" x2="200" y1="73.814" y2="406.575"><stop offset="0" stop-color="#fc5c7d"/><stop offset=".129" stop-color="#f35e85"/><stop offset=".343" stop-color="#d9659b"/><stop offset=".616" stop-color="#b070bf"/><stop offset=".934" stop-color="#777ff0"/><stop offset="1" stop-color="#6a82fb"/></linearGradient><linearGradient id="New_Gradient_Swatch_2-2" x1="336" x2="336" xlink:href="#New_Gradient_Swatch_2" y1="73.814" y2="406.575"/><linearGradient id="New_Gradient_Swatch_2-3" x1="264" x2="264" xlink:href="#New_Gradient_Swatch_2" y1="73.814" y2="406.575"/><linearGradient id="New_Gradient_Swatch_2-4" x1="255.056" x2="255.056" xlink:href="#New_Gradient_Swatch_2" y1="73.814" y2="406.575"/><linearGradient id="New_Gradient_Swatch_2-5" x1="176" x2="176" xlink:href="#New_Gradient_Swatch_2" y1="73.814" y2="406.575"/><linearGradient id="New_Gradient_Swatch_2-6" x1="362.731" x2="362.731" xlink:href="#New_Gradient_Swatch_2" y1="73.814" y2="406.575"/><linearGradient id="New_Gradient_Swatch_2-7" x1="81.751" x2="81.751" xlink:href="#New_Gradient_Swatch_2" y1="73.814" y2="406.575"/><linearGradient id="New_Gradient_Swatch_2-8" x1="430.249" x2="430.249" xlink:href="#New_Gradient_Swatch_2" y1="73.814" y2="406.575"/><linearGradient id="New_Gradient_Swatch_2-10" x1="328" x2="328" xlink:href="#New_Gradient_Swatch_2" y1="73.814" y2="406.575"/><linearGradient id="New_Gradient_Swatch_2-11" x1="152" x2="152" xlink:href="#New_Gradient_Swatch_2" y1="73.814" y2="406.575"/><linearGradient id="New_Gradient_Swatch_2-13" x1="256" x2="256" xlink:href="#New_Gradient_Swatch_2" y1="73.814" y2="406.575"/><linearGradient id="New_Gradient_Swatch_2-17" x1="360" x2="360" xlink:href="#New_Gradient_Swatch_2" y1="73.814" y2="406.575"/><linearGradient id="New_Gradient_Swatch_2-19" x1="184" x2="184" xlink:href="#New_Gradient_Swatch_2" y1="73.814" y2="406.575"/><path d="m192 328h16v32h-16z" fill="url(#New_Gradient_Swatch_2)"/><path d="m328 328h16v32h-16z" fill="url(#New_Gradient_Swatch_2-2)"/><path d="m256 448h16v24h-16z" fill="url(#New_Gradient_Swatch_2-3)"/><path d="m242.542 368a55.758 55.758 0 0 0 -30.971 9.338l8.858 13.324a40.007 40.007 0 0 1 62.113 33.338 40.474 40.474 0 0 1 -.553 6.676l15.779 2.648a56.042 56.042 0 0 0 -55.226-65.324z" fill="url(#New_Gradient_Swatch_2-4)"/><path d="m176 432a56.1 56.1 0 0 0 -52.812 37.334l15.086 5.332a40.02 40.02 0 0 1 75.452 0l15.086-5.332a56.1 56.1 0 0 0 -52.812-37.334z" fill="url(#New_Gradient_Swatch_2-5)"/><path d="m362.731 432a56.1 56.1 0 0 0 -52.811 37.334l15.085 5.332a40.02 40.02 0 0 1 75.453 0l15.085-5.332a56.1 56.1 0 0 0 -52.812-37.334z" fill="url(#New_Gradient_Swatch_2-6)"/><path d="m120 392a39.967 39.967 0 0 1 19.994 5.347l8.012-13.85a55.876 55.876 0 0 0 -20.006-6.917v-48.58h-16v48.574a56.125 56.125 0 0 0 -47.431 47.426h-.569a56.206 56.206 0 0 0 -48.5 27.994l13.849 8.012a40.161 40.161 0 0 1 34.651-20.006c.571 0 1.141.015 1.709.039.434.019.87.05 1.306.084.117.009.235.014.352.024.516.044 1.032.1 1.55.164l.116.013c.5.064 1 .14 1.508.222a39.9 39.9 0 0 1 20.124 9.638l10.67-11.922a55.862 55.862 0 0 0 -20.943-11.8 40.054 40.054 0 0 1 39.608-34.462z" fill="url(#New_Gradient_Swatch_2-7)"/><path d="m448 424.006v-.006c-.072 0-.144 0-.217 0-.117 0-.234 0-.352 0a56.125 56.125 0 0 0 -47.431-47.426v-48.574h-16v48.58a55.876 55.876 0 0 0 -20.006 6.917l8.012 13.85a40.009 40.009 0 0 1 59.6 29.114 55.88 55.88 0 0 0 -20.945 11.8l10.67 11.922a39.9 39.9 0 0 1 20.124-9.638c.5-.082 1-.158 1.508-.222l.116-.013c.518-.064 1.034-.12 1.55-.164.117-.01.235-.015.352-.024.436-.034.872-.065 1.306-.084.568-.024 1.138-.039 1.709-.039a40.161 40.161 0 0 1 34.654 20.006l13.849-8.012a56.161 56.161 0 0 0 -48.499-27.987z" fill="url(#New_Gradient_Swatch_2-8)"/><path d="m168 392h16v16h-16z" fill="url(#New_Gradient_Swatch_2-5)"/><path d="m320 384h16v16h-16z" fill="url(#New_Gradient_Swatch_2-10)"/><path d="m144 344h16v16h-16z" fill="url(#New_Gradient_Swatch_2-11)"/><path d="m256 336h16v16h-16z" fill="url(#New_Gradient_Swatch_2-3)"/><g fill="url(#New_Gradient_Swatch_2-13)"><path d="m336 312h120a8 8 0 0 0 7.761-6.06l16-64a8 8 0 0 0 -7.037-9.907l-56.724-5.157v-26.876h-16v25.422l-11.734-1.067-21.866-29.155a8 8 0 0 0 -5.786-3.177l-56.614-4.354v-19.669a24.027 24.027 0 0 0 -24-24h-48a24.027 24.027 0 0 0 -24 24v19.669l-56.614 4.354a8 8 0 0 0 -5.786 3.177l-21.866 29.155-11.734 1.067v-25.422h-16v26.876l-56.724 5.157a8 8 0 0 0 -7.037 9.907l16 64a8 8 0 0 0 7.761 6.06h120a7.993 7.993 0 0 0 4.438-1.344l21.984-14.656h107.156l21.984 14.656a7.993 7.993 0 0 0 4.438 1.344zm-112-144a8.009 8.009 0 0 1 8-8h48a8.009 8.009 0 0 1 8 8v18.438l-31.386-2.415a8.119 8.119 0 0 0 -1.228 0l-31.386 2.415zm88 112h-112a7.993 7.993 0 0 0 -4.438 1.344l-21.984 14.656h-111.332l-12.22-48.878 78.7-7.155a8 8 0 0 0 5.674-3.167l21.826-29.1 99.774-7.677 99.774 7.676 21.826 29.101a8 8 0 0 0 5.676 3.167l78.7 7.155-12.222 48.878h-111.332l-21.984-14.656a7.993 7.993 0 0 0 -4.438-1.344z"/><path d="m344 280a7.978 7.978 0 0 0 2.53-.411l22.279-7.426 62.2 7.775 1.984-15.876-60.63-7.579-21.963-29.283a8 8 0 0 0 -5.684-3.168l-88-7.905a7.964 7.964 0 0 0 -1.432 0l-88 7.905a8 8 0 0 0 -5.684 3.168l-21.962 29.283-60.63 7.579 1.984 15.876 62.2-7.775 22.279 7.426a7.992 7.992 0 0 0 6.968-.933l21.983-14.656h123.156l21.984 14.656a8 8 0 0 0 4.438 1.344zm-24-32h-128a7.993 7.993 0 0 0 -4.438 1.344l-20.744 13.829-9.758-3.253 15.2-20.271 83.74-7.522 83.737 7.522 15.2 20.271-9.758 3.253-20.744-13.829a7.993 7.993 0 0 0 -4.435-1.344z"/><path d="m236 104h40a8 8 0 0 0 6.4-3.2l5.412-7.217a8 8 0 0 0 -.254-9.921l-20.658-24.784a8 8 0 0 0 -6.141-2.878h-9.518a8 8 0 0 0 -6.145 2.878l-20.654 24.784a8 8 0 0 0 -.254 9.921l5.412 7.217a8 8 0 0 0 6.4 3.2zm18.988-32h2.024l13.333 16h-28.69z"/></g><path d="m320 160h16v16h-16z" fill="url(#New_Gradient_Swatch_2-10)"/><path d="m352 160h16v16h-16z" fill="url(#New_Gradient_Swatch_2-17)"/><path d="m94.579 158.67 130.349-30.67h62.144l130.349 30.67 14.818 59.27 15.522-3.88-16-64a8 8 0 0 0 -5.928-5.847l-49.833-11.725v-36.488a8 8 0 0 0 -6.869-7.919l-52.954-7.565-38.031-45.638a8 8 0 0 0 -6.146-2.878h-8v-16h-16v16h-8a8 8 0 0 0 -6.146 2.878l-38.031 45.638-52.954 7.565a8 8 0 0 0 -6.869 7.919v36.488l-49.833 11.725a8 8 0 0 0 -5.928 5.847l-16 64 15.522 3.88zm101.863-62.081 13.819 18.425-26.261 6.179v-22.826zm131.558 1.778v22.826l-26.261-6.179 13.819-18.425zm32 30.356-16-3.765v-24.3l16 2.285zm-116.253-80.723h24.506l33.547 40.261-17.8 23.739h-56l-17.8-23.739zm-91.747 54.938 16-2.285v24.3l-16 3.765z" fill="url(#New_Gradient_Swatch_2-13)"/><path d="m176 160h16v16h-16z" fill="url(#New_Gradient_Swatch_2-19)"/><path d="m144 160h16v16h-16z" fill="url(#New_Gradient_Swatch_2-11)"/></svg>