<svg id="GD001" height="512" viewBox="0 0 512 512" width="512" xmlns="http://www.w3.org/2000/svg" xmlns:xlink="http://www.w3.org/1999/xlink"><linearGradient id="New_Gradient_Swatch_2" gradientUnits="userSpaceOnUse" x1="256" x2="256" y1="73.814" y2="406.575"><stop offset="0" stop-color="#fc5c7d"/><stop offset=".129" stop-color="#f35e85"/><stop offset=".343" stop-color="#d9659b"/><stop offset=".616" stop-color="#b070bf"/><stop offset=".934" stop-color="#777ff0"/><stop offset="1" stop-color="#6a82fb"/></linearGradient><linearGradient id="New_Gradient_Swatch_2-2" x1="269.287" x2="269.287" xlink:href="#New_Gradient_Swatch_2" y1="73.814" y2="406.575"/><linearGradient id="New_Gradient_Swatch_2-3" x1="248.503" x2="248.503" xlink:href="#New_Gradient_Swatch_2" y1="73.814" y2="406.575"/><linearGradient id="New_Gradient_Swatch_2-4" x1="372.129" x2="372.129" xlink:href="#New_Gradient_Swatch_2" y1="73.814" y2="406.575"/><linearGradient id="New_Gradient_Swatch_2-5" x1="319.813" x2="319.813" xlink:href="#New_Gradient_Swatch_2" y1="73.814" y2="406.575"/><linearGradient id="New_Gradient_Swatch_2-6" x1="143.94" x2="143.94" xlink:href="#New_Gradient_Swatch_2" y1="73.814" y2="406.575"/><linearGradient id="New_Gradient_Swatch_2-7" x1="403.759" x2="403.759" xlink:href="#New_Gradient_Swatch_2" y1="73.814" y2="406.575"/><linearGradient id="New_Gradient_Swatch_2-8" x1="86.294" x2="86.294" xlink:href="#New_Gradient_Swatch_2" y1="73.814" y2="406.575"/><linearGradient id="New_Gradient_Swatch_2-9" x1="146.207" x2="146.207" xlink:href="#New_Gradient_Swatch_2" y1="73.814" y2="406.575"/><linearGradient id="New_Gradient_Swatch_2-10" x1="164.548" x2="164.548" xlink:href="#New_Gradient_Swatch_2" y1="73.814" y2="406.575"/><linearGradient id="New_Gradient_Swatch_2-11" x1="318.786" x2="318.786" xlink:href="#New_Gradient_Swatch_2" y1="73.814" y2="406.575"/><linearGradient id="New_Gradient_Swatch_2-12" x1="180.806" x2="180.806" xlink:href="#New_Gradient_Swatch_2" y1="73.814" y2="406.575"/><linearGradient id="New_Gradient_Swatch_2-13" x1="317.666" x2="317.666" xlink:href="#New_Gradient_Swatch_2" y1="73.814" y2="406.575"/><linearGradient id="New_Gradient_Swatch_2-14" gradientTransform="matrix(.956 .294 -.294 .956 95.845 -2.493)" x1="56.211" x2="56.211" xlink:href="#New_Gradient_Swatch_2" y1="73.814" y2="406.575"/><linearGradient id="New_Gradient_Swatch_2-15" gradientTransform="matrix(.969 .246 -.246 .969 107.105 -57.76)" x1="284.586" x2="284.586" xlink:href="#New_Gradient_Swatch_2" y1="73.814" y2="406.575"/><linearGradient id="New_Gradient_Swatch_2-16" gradientTransform="matrix(.969 .246 -.246 .969 49.925 -50.609)" x1="227.414" x2="227.414" xlink:href="#New_Gradient_Swatch_2" y1="73.814" y2="406.575"/><linearGradient id="New_Gradient_Swatch_2-17" gradientTransform="matrix(.956 .294 -.294 .956 77.358 -125.433)" x1="455.789" x2="455.789" xlink:href="#New_Gradient_Swatch_2" y1="73.814" y2="406.575"/><path d="m193.807 256a62.193 62.193 0 1 0 62.193-62.193 62.264 62.264 0 0 0 -62.193 62.193zm62.193-46.193a46.193 46.193 0 1 1 -46.193 46.193 46.245 46.245 0 0 1 46.193-46.193z" fill="url(#New_Gradient_Swatch_2)"/><path d="m176.1 161.014 10.307 12.237a108.112 108.112 0 0 1 162.354 27.159l13.716-8.239a124.138 124.138 0 0 0 -186.377-31.157z" fill="url(#New_Gradient_Swatch_2-2)"/><path d="m318.064 363.521a124.9 124.9 0 0 0 44.413-43.692l-13.716-8.239a108.159 108.159 0 0 1 -198.574-33.226l-15.658 3.292a124.185 124.185 0 0 0 183.535 81.865z" fill="url(#New_Gradient_Swatch_2-3)"/><path d="m333.161 256a38.968 38.968 0 1 0 38.968-38.968 39.012 39.012 0 0 0 -38.968 38.968zm38.968-22.968a22.968 22.968 0 1 1 -22.968 22.968 22.994 22.994 0 0 1 22.968-22.968z" fill="url(#New_Gradient_Swatch_2-4)"/><path d="m319.769 128.732a39.036 39.036 0 0 0 36.423-25 38.961 38.961 0 1 0 -36.423 25zm-21.4-47.2a22.968 22.968 0 1 1 13.211 29.674 22.817 22.817 0 0 1 -13.209-29.675z" fill="url(#New_Gradient_Swatch_2-5)"/><path d="m119.417 424.666a38.968 38.968 0 1 0 -5.76-54.807 38.778 38.778 0 0 0 5.76 54.807zm6.674-44.738a22.819 22.819 0 0 1 15.449-8.388 23.348 23.348 0 0 1 2.444-.128 22.97 22.97 0 1 1 -17.893 8.516z" fill="url(#New_Gradient_Swatch_2-6)"/><path d="m379.768 414.416a38.968 38.968 0 0 0 19.242 69.384 39.655 39.655 0 0 0 4.827.3 38.97 38.97 0 1 0 -24.069-69.68zm46.787 33.5a22.968 22.968 0 1 1 -4.7-16.939 22.815 22.815 0 0 1 4.7 16.944z" fill="url(#New_Gradient_Swatch_2-7)"/><path d="m86.294 125.244a38.95 38.95 0 1 0 -27.554-11.395 38.851 38.851 0 0 0 27.554 11.395zm-16.24-55.19a22.968 22.968 0 1 1 0 32.481 22.894 22.894 0 0 1 0-32.481z" fill="url(#New_Gradient_Swatch_2-8)"/><path d="m133.511 255.037a38.968 38.968 0 1 0 -24.157-49.532 38.8 38.8 0 0 0 24.157 49.532zm-9.03-44.323a22.968 22.968 0 1 1 14.239 29.195 22.819 22.819 0 0 1 -14.239-29.195z" fill="url(#New_Gradient_Swatch_2-9)"/><path d="m69.936 256a185.742 185.742 0 0 0 26.509 95.759l13.71-8.248a169.75 169.75 0 0 1 -24.219-87.511c0-93.774 76.29-170.064 170.064-170.064.956 0 1.9.009 2.858.027l.3-16c-1.057-.02-2.1-.03-3.161-.03-102.597.003-186.061 83.467-186.061 186.067z" fill="url(#New_Gradient_Swatch_2-10)"/><path d="m442.064 256a186.14 186.14 0 0 0 -63.925-140.374l-10.51 12.064a170.143 170.143 0 0 1 58.435 128.31c0 93.774-76.29 170.064-170.064 170.064a169.588 169.588 0 0 1 -55.288-9.193l-5.204 15.129a185.532 185.532 0 0 0 60.492 10.064c102.6 0 186.064-83.464 186.064-186.064z" fill="url(#New_Gradient_Swatch_2-11)"/><path d="m256 488a232.043 232.043 0 0 1 -200.6-348.6l-13.822-8.058a248.093 248.093 0 0 0 312.037 352.7l-6.3-14.706a230.471 230.471 0 0 1 -91.315 18.664z" fill="url(#New_Gradient_Swatch_2-12)"/><path d="m431.364 80.636a248.1 248.1 0 0 0 -300.031-39.06l8.057 13.824a232.02 232.02 0 0 1 301.485 340.767l12.741 9.678a248.011 248.011 0 0 0 -22.252-325.209z" fill="url(#New_Gradient_Swatch_2-13)"/><path d="m48.47 309.473h15.483v16h-15.483z" fill="url(#New_Gradient_Swatch_2-14)" transform="matrix(.956 -.294 .294 .956 -90.874 30.568)"/><path d="m276.844 391.523h15.484v16h-15.484z" fill="url(#New_Gradient_Swatch_2-15)" transform="matrix(.969 -.246 .246 .969 -89.591 82.348)"/><path d="m219.672 166.412h15.484v16h-15.484z" fill="url(#New_Gradient_Swatch_2-16)" transform="matrix(.969 -.246 .246 .969 -35.932 61.34)"/><path d="m448.047 186.526h15.483v16h-15.483z" fill="url(#New_Gradient_Swatch_2-17)" transform="matrix(.956 -.294 .294 .956 -37.051 142.635)"/></svg>