<svg id="GD001" height="512" viewBox="0 0 512 512" width="512" xmlns="http://www.w3.org/2000/svg" xmlns:xlink="http://www.w3.org/1999/xlink"><linearGradient id="New_Gradient_Swatch_2" gradientUnits="userSpaceOnUse" x1="160" x2="160" y1="73.814" y2="406.575"><stop offset="0" stop-color="#fc5c7d"/><stop offset=".129" stop-color="#f35e85"/><stop offset=".343" stop-color="#d9659b"/><stop offset=".616" stop-color="#b070bf"/><stop offset=".934" stop-color="#777ff0"/><stop offset="1" stop-color="#6a82fb"/></linearGradient><linearGradient id="New_Gradient_Swatch_2-2" x1="224" x2="224" xlink:href="#New_Gradient_Swatch_2" y1="73.814" y2="406.575"/><linearGradient id="New_Gradient_Swatch_2-3" x1="288" x2="288" xlink:href="#New_Gradient_Swatch_2" y1="73.814" y2="406.575"/><linearGradient id="New_Gradient_Swatch_2-4" x1="352" x2="352" xlink:href="#New_Gradient_Swatch_2" y1="73.814" y2="406.575"/><linearGradient id="New_Gradient_Swatch_2-5" x1="256" x2="256" xlink:href="#New_Gradient_Swatch_2" y1="73.814" y2="406.575"/><linearGradient id="New_Gradient_Swatch_2-9" x1="344" x2="344" xlink:href="#New_Gradient_Swatch_2" y1="73.814" y2="406.575"/><path d="m160 408a24 24 0 1 0 24 24 24.027 24.027 0 0 0 -24-24zm0 32a8 8 0 1 1 8-8 8.009 8.009 0 0 1 -8 8z" fill="url(#New_Gradient_Swatch_2)"/><path d="m224 408a24 24 0 1 0 24 24 24.027 24.027 0 0 0 -24-24zm0 32a8 8 0 1 1 8-8 8.009 8.009 0 0 1 -8 8z" fill="url(#New_Gradient_Swatch_2-2)"/><path d="m288 408a24 24 0 1 0 24 24 24.027 24.027 0 0 0 -24-24zm0 32a8 8 0 1 1 8-8 8.009 8.009 0 0 1 -8 8z" fill="url(#New_Gradient_Swatch_2-3)"/><path d="m352 408a24 24 0 1 0 24 24 24.027 24.027 0 0 0 -24-24zm0 32a8 8 0 1 1 8-8 8.009 8.009 0 0 1 -8 8z" fill="url(#New_Gradient_Swatch_2-4)"/><g fill="url(#New_Gradient_Swatch_2-5)"><path d="m464 408h-56a32.036 32.036 0 0 0 -32-32h-80v-16h16a8 8 0 0 0 6.656-3.562l13.625-20.438h19.719v16h16v-16h8a8 8 0 0 0 7.155-4.422l6.126-12.251 18.719-2.674v11.347h16v-13.633l17.132-2.448a8 8 0 0 0 6.868-7.919v-24h8a8 8 0 0 0 8-8v-32a8 8 0 0 0 -8-8h-10.972c-8.888-35.529-37.24-66.288-77.028-86.532v-41.468h-16v34.15q-7.778-3.181-16-5.854v-60.296h-16v55.719a256.29 256.29 0 0 0 -30.78-5.69l-1.238-18.561a8 8 0 0 0 -7.982-7.468h-48a8 8 0 0 0 -7.982 7.468l-1.238 18.565c-7.712.948-15.329 2.221-22.78 3.82v-5.853a8 8 0 0 0 -8-8v-72a8 8 0 0 0 -8-8h-8v-16h-16v16h-8a8 8 0 0 0 -8 8v72a8 8 0 0 0 -8 8v29.713c-36.712 20.752-60.934 49.654-69.039 82.287h-10.961a8 8 0 0 0 -8 8v32a8 8 0 0 0 8 8h8v24a8 8 0 0 0 6.868 7.919l17.132 2.448v13.633h16v-11.347l18.719 2.674 6.126 12.251a8 8 0 0 0 7.155 4.422h8v16h16v-16h19.719l13.625 20.438a8 8 0 0 0 6.656 3.562h16v16h-80a32.036 32.036 0 0 0 -32 32h-56a24 24 0 0 0 0 48h56a32.036 32.036 0 0 0 32 32h240a32.036 32.036 0 0 0 32-32h56a24 24 0 0 0 0-48zm-424 24a8.009 8.009 0 0 1 8-8h8v16h-8a8.009 8.009 0 0 1 -8-8zm32 8v-16h32v16zm360-142.938-40 5.714v-22.776h40zm16-33.062h-120v-16h120zm-128-119.793v31.793h16v-26.886q8.264 2.883 16 6.329v20.557h16v-12.527c30.452 17.16 52.267 41.161 60.449 68.527h-100.449v-8a8 8 0 0 0 -8-8 26.272 26.272 0 0 1 -26.146-24.461l-3.554-53.239a240.35 240.35 0 0 1 29.7 5.907zm-85.889 48.4 5.373-80.6h33.032l5.373 80.6a42.351 42.351 0 0 0 34.111 38.627v32.766h-112v-32.766a42.351 42.351 0 0 0 34.111-38.634zm53.889 87.393a32 32 0 0 1 -64 0zm-136-152h32v43.157a12.858 12.858 0 0 1 -12.843 12.843 19.179 19.179 0 0 1 -19.157-19.157zm8-80h16v64h-16zm-23.829 120.286a35.2 35.2 0 0 0 34.986 31.714 28.875 28.875 0 0 0 28.843-28.843v-28.907c7.079-1.629 14.33-2.957 21.7-3.955l-3.55 53.244a26.272 26.272 0 0 1 -26.15 24.461 8 8 0 0 0 -8 8v8h-100.424c7.342-24.222 25.89-46.679 52.595-63.714zm-72.171 79.714h120v16h-120zm16 32h40v22.776l-40-5.714zm112 45.578v-29.578h-16v24h-35.056l-4.944-9.888v-30.112h72a48 48 0 0 0 96 0h72v30.112l-4.944 9.888h-35.056v-24h-16v29.578l-12.281 18.422h-103.438zm40 34.422h48v16h-48zm160 96a16.019 16.019 0 0 1 -16 16h-240a16.019 16.019 0 0 1 -16-16v-48a16.019 16.019 0 0 1 16-16h240a16.019 16.019 0 0 1 16 16zm16-32h32v16h-32zm56 16h-8v-16h8a8 8 0 0 1 0 16z"/><path d="m248 232h16v16h-16z"/><path d="m248 200h16v16h-16z"/><path d="m248 168h16v16h-16z"/></g><path d="m320 192h48v16h-48z" fill="url(#New_Gradient_Swatch_2-9)"/></svg>