<?xml version="1.0"?>
<svg xmlns="http://www.w3.org/2000/svg" xmlns:xlink="http://www.w3.org/1999/xlink" id="GD001" viewBox="0 0 512 512" width="512" height="512"><defs><linearGradient id="New_Gradient_Swatch_2" x1="256" y1="73.814" x2="256" y2="406.575" gradientUnits="userSpaceOnUse"><stop offset="0" stop-color="#fc5c7d"/><stop offset="0.129" stop-color="#f35e85"/><stop offset="0.343" stop-color="#d9659b"/><stop offset="0.616" stop-color="#b070bf"/><stop offset="0.934" stop-color="#777ff0"/><stop offset="1" stop-color="#6a82fb"/></linearGradient><linearGradient id="New_Gradient_Swatch_2-3" x1="312" y1="73.814" x2="312" y2="406.575" xlink:href="#New_Gradient_Swatch_2"/></defs><path d="M501.657,386.343l-32-32A8,8,0,0,0,464,352H439.772l-7.787-128.484A8,8,0,0,0,424,216H371.1l3.022-9.066,35.448-7.089A8,8,0,0,0,416,192V168h8a8,8,0,0,0,8-8V128a8,8,0,0,0-8-8h-9.337c-3.82-22.154-15.83-41.245-35.044-55.546-21.557-16.045-52.048-26.321-90.69-30.59l-.962-10.588A8,8,0,0,0,280,16H232a8,8,0,0,0-7.967,7.276l-.962,10.59C127.226,44.442,102.666,89.371,97.343,120H88a8,8,0,0,0-8,8v32a8,8,0,0,0,8,8h8v24a8,8,0,0,0,6.431,7.845l35.448,7.089L140.9,216H88a8,8,0,0,0-7.985,7.516L72.228,352H48a8,8,0,0,0-5.657,2.343l-32,32A8,8,0,0,0,8,392v96a8,8,0,0,0,8,8H496a8,8,0,0,0,8-8V392A8,8,0,0,0,501.657,386.343ZM392,400h34.652l1.94,32H392ZM336,216V184H320v32H291.739a48,48,0,0,0,9.53-48H360v30.7L354.234,216ZM224,184a31.7,31.7,0,0,1,4.307-16h55.386A31.7,31.7,0,0,1,288,184a32,32,0,0,1-64,0Zm176,1.441-24,4.8V168h24ZM416,152H328V136h88ZM370.066,77.289c15.245,11.347,24.725,25.69,28.3,42.711H328v-8a8,8,0,0,0-8-8,26.913,26.913,0,0,1-26.931-24.593L290.41,50.154C324.617,54.293,351.4,63.4,370.066,77.289Zm-135.2,3.566L239.306,32h33.388l4.442,48.856A42.806,42.806,0,0,0,312,119.27V152H200V119.27A42.806,42.806,0,0,0,234.864,80.855Zm-92.93-3.566c18.667-13.894,45.449-23,79.656-27.135l-2.659,29.253A26.913,26.913,0,0,1,192,104a8,8,0,0,0-8,8v8H113.632C117.209,102.979,126.689,88.636,141.934,77.289ZM96,136h88v16H96Zm16,32h24v22.241l-24-4.8Zm40,30.7V168h58.731a48,48,0,0,0,9.53,48H192V184H176v32H157.766ZM128,232h64v16H128ZM24,395.313,51.313,368H71.258L64.47,480H24ZM227.062,400h57.876l10,80H217.062Zm2-16,2-16h49.876l2,16Zm82,96L295.938,359.008A8,8,0,0,0,288,352H224a8,8,0,0,0-7.938,7.008L200.938,480H80.5l4.849-80H192V384H86.318l4.849-80H208V288H92.136l3.394-56H112v24a8,8,0,0,0,8,8h80a8,8,0,0,0,8-8V232H416.47l3.394,56H336v16h84.833l4.849,80H320v16h56v40a8,8,0,0,0,8,8h45.562l1.939,32ZM488,480H447.53l-6.788-112h19.945L488,395.313Z" style="fill:url(#New_Gradient_Swatch_2)"/><path d="M256,264a32,32,0,1,0,32,32A32.036,32.036,0,0,0,256,264Zm0,48a16,16,0,1,1,16-16A16.019,16.019,0,0,1,256,312Z" style="fill:url(#New_Gradient_Swatch_2)"/><rect x="304" y="288" width="16" height="16" style="fill:url(#New_Gradient_Swatch_2-3)"/></svg>
