<?xml version="1.0"?>
<svg xmlns="http://www.w3.org/2000/svg" xmlns:xlink="http://www.w3.org/1999/xlink" id="GD001" viewBox="0 0 512 512" width="512" height="512"><defs><linearGradient id="New_Gradient_Swatch_2" x1="244.555" y1="166.541" x2="259.913" y2="458.346" gradientUnits="userSpaceOnUse"><stop offset="0" stop-color="#fc5c7d"/><stop offset="0.129" stop-color="#f35e85"/><stop offset="0.343" stop-color="#d9659b"/><stop offset="0.616" stop-color="#b070bf"/><stop offset="0.934" stop-color="#777ff0"/><stop offset="1" stop-color="#6a82fb"/></linearGradient><linearGradient id="New_Gradient_Swatch_2-2" x1="260.078" y1="165.724" x2="275.436" y2="457.529" xlink:href="#New_Gradient_Swatch_2"/><linearGradient id="New_Gradient_Swatch_2-3" x1="257.559" y1="165.857" x2="272.917" y2="457.662" xlink:href="#New_Gradient_Swatch_2"/><linearGradient id="New_Gradient_Swatch_2-4" x1="255.039" y1="165.989" x2="270.398" y2="457.795" xlink:href="#New_Gradient_Swatch_2"/><linearGradient id="New_Gradient_Swatch_2-5" x1="252.52" y1="166.122" x2="267.878" y2="457.927" xlink:href="#New_Gradient_Swatch_2"/></defs><path d="M396.8,457.6l-32-24A8,8,0,0,0,360,432H336V416a24.028,24.028,0,0,0,24-24V355.37l39.023-71.539a8,8,0,0,0,.942-4.578l-24-256A8,8,0,0,0,365.8,16.308l-56,16A8,8,0,0,0,304,40V53.394L258.2,40.308a7.991,7.991,0,0,0-4.4,0L208,53.394V40a8,8,0,0,0-5.8-7.692l-56-16a8,8,0,0,0-10.163,6.945l-24,256a8,8,0,0,0,.942,4.578L152,355.37V392a24.028,24.028,0,0,0,24,24v16H152a8,8,0,0,0-4.8,1.6l-32,24A8,8,0,0,0,112,464v24a8,8,0,0,0,8,8H392a8,8,0,0,0,8-8V464A8,8,0,0,0,396.8,457.6ZM216,336v16a24.028,24.028,0,0,0,24,24h32a24.028,24.028,0,0,0,24-24V336h16v64H200V336Zm16,0h48v16a8.009,8.009,0,0,1-8,8H240a8.009,8.009,0,0,1-8-8Zm112,56a8.009,8.009,0,0,1-8,8h-8V336h8a8.009,8.009,0,0,1,8,8ZM360.934,34.339l1.4,14.959L320,61.394V46.034ZM256,56.32l48,13.715V251.357l-48,27.429-48-27.429V70.035ZM192,46.034v15.36L149.664,49.3l1.4-14.959ZM148.144,65.5,160,68.892V232h16V73.463l16,4.572V256a8,8,0,0,0,4.031,6.946l56,32a8,8,0,0,0,7.938,0l56-32A8,8,0,0,0,320,256V78.035l16-4.572V232h16V68.892L363.856,65.5l19.951,212.81-28.254,51.8A23.98,23.98,0,0,0,336,320H176a23.98,23.98,0,0,0-19.553,10.11l-28.254-51.8ZM168,392V344a8.009,8.009,0,0,1,8-8h8v64h-8A8.009,8.009,0,0,1,168,392Zm24,24H320v16H192Zm192,64H128V468l26.667-20H357.333L384,468Z" style="fill:url(#New_Gradient_Swatch_2)"/><path d="M256,96.246l30.06,7.515,3.88-15.522-32-8a8.009,8.009,0,0,0-3.88,0l-32,8,3.88,15.522Z" style="fill:url(#New_Gradient_Swatch_2-2)"/><path d="M256,144.246l30.06,7.515,3.88-15.522-32-8a8.009,8.009,0,0,0-3.88,0l-32,8,3.88,15.522Z" style="fill:url(#New_Gradient_Swatch_2-3)"/><path d="M256,192.246l30.06,7.515,3.88-15.522-32-8a8.009,8.009,0,0,0-3.88,0l-32,8,3.88,15.522Z" style="fill:url(#New_Gradient_Swatch_2-4)"/><path d="M254.06,224.239l-32,8,3.88,15.522L256,240.246l30.06,7.515,3.88-15.522-32-8A8.009,8.009,0,0,0,254.06,224.239Z" style="fill:url(#New_Gradient_Swatch_2-5)"/></svg>
