<?xml version="1.0"?>
<svg xmlns="http://www.w3.org/2000/svg" xmlns:xlink="http://www.w3.org/1999/xlink" id="GD001" viewBox="0 0 512 512" width="512" height="512"><defs><linearGradient id="New_Gradient_Swatch_2" x1="248.312" y1="125.922" x2="263.67" y2="417.728" gradientUnits="userSpaceOnUse"><stop offset="0" stop-color="#fc5c7d"/><stop offset="0.129" stop-color="#f35e85"/><stop offset="0.343" stop-color="#d9659b"/><stop offset="0.616" stop-color="#b070bf"/><stop offset="0.934" stop-color="#777ff0"/><stop offset="1" stop-color="#6a82fb"/></linearGradient><linearGradient id="New_Gradient_Swatch_2-2" x1="253.771" y1="125.635" x2="269.129" y2="417.44" xlink:href="#New_Gradient_Swatch_2"/><linearGradient id="New_Gradient_Swatch_2-3" x1="242.013" y1="126.254" x2="257.372" y2="418.059" xlink:href="#New_Gradient_Swatch_2"/><linearGradient id="New_Gradient_Swatch_2-4" x1="240.334" y1="126.342" x2="255.692" y2="418.148" xlink:href="#New_Gradient_Swatch_2"/><linearGradient id="New_Gradient_Swatch_2-5" x1="332.709" y1="121.48" x2="348.068" y2="413.286" xlink:href="#New_Gradient_Swatch_2"/><linearGradient id="New_Gradient_Swatch_2-6" x1="173.151" y1="129.878" x2="188.51" y2="421.683" xlink:href="#New_Gradient_Swatch_2"/></defs><path d="M256,208a64,64,0,1,0,64,64A64.072,64.072,0,0,0,256,208Zm0,112a48,48,0,1,1,48-48A48.054,48.054,0,0,1,256,320Z" style="fill:url(#New_Gradient_Swatch_2)"/><path d="M504,168A79.99,79.99,0,0,0,382.877,99.386L368,93.01V62.125A24.039,24.039,0,0,0,346.977,38.31l-32-4A24,24,0,0,0,288,58.125V64H224V58.125A24,24,0,0,0,197.023,34.31l-32,4A24.039,24.039,0,0,0,144,62.125V93.01l-14.877,6.376A80.009,80.009,0,0,0,16.332,203.574,30.312,30.312,0,0,0,16,208v24c0,22.43,24.6,40,56,40,28.741,0,51.768-14.722,55.467-34.414A80.293,80.293,0,0,0,144,225.116l.309,1.082a8,8,0,0,0,4.114,4.957l17.162,8.581a95.349,95.349,0,0,0-3.043,10.289l-22.979,15.319A8,8,0,0,0,136,272v10.122H120v16h16v16H120v16h16V336a24.027,24.027,0,0,0,24,24h8v8a8,8,0,0,0,1.09,4.031l9.094,15.59-21.911,11.34a24,24,0,0,0-10.283,32.347l14.711,28.42a23.965,23.965,0,0,0,32.346,10.281l25.5-13.2,6.546,11.221A8,8,0,0,0,232,472h48a8,8,0,0,0,6.91-3.969l6.546-11.221,25.5,13.2A24,24,0,0,0,351.3,459.728l14.711-28.421a24,24,0,0,0-10.283-32.346l-21.911-11.34,9.094-15.59A8,8,0,0,0,344,368v-8h24a8,8,0,0,0,8-8V330.122h16v-16H376v-16h16v-16H376V272a8,8,0,0,0-3.562-6.656l-22.979-15.319a95.349,95.349,0,0,0-3.043-10.289l17.162-8.581a8,8,0,0,0,4.114-4.957l.309-1.082a80.293,80.293,0,0,0,16.532,12.47C388.232,257.278,411.259,272,440,272c31.4,0,56-17.57,56-40V208a30.312,30.312,0,0,0-.332-4.426A80.285,80.285,0,0,0,504,168ZM304,58.125a8,8,0,0,1,8.992-7.938l32,4A8.012,8.012,0,0,1,352,62.125V86.153l-8.656-3.71A24.039,24.039,0,0,0,320,64H304ZM216,120V80h16v40h16V80h16v40h16V80h16v40h16V80h8a8.009,8.009,0,0,1,8,8v48H184V88a8.009,8.009,0,0,1,8-8h8v40ZM160,62.125a8.012,8.012,0,0,1,7.008-7.938l32-4A8,8,0,0,1,208,58.125V64H192a24.039,24.039,0,0,0-23.344,18.443L160,86.153ZM72,192c-15.378,0-29.115,4.221-39.14,11.156C36.714,192.375,53.074,184,72,184s35.286,8.375,39.14,19.156C101.115,196.221,87.378,192,72,192ZM32,232c0-7.659,6.353-14.616,16-19.045v38.09C38.353,246.616,32,239.659,32,232Zm32,23.494V208.506a63.494,63.494,0,0,1,16,0v46.988a63.494,63.494,0,0,1-16,0Zm32-4.449v-38.09c9.647,4.429,16,11.386,16,19.045S105.647,246.616,96,251.045Zm32-33.1V208c0-22.43-24.6-40-56-40-19.131,0-35.723,6.529-45.78,16.7a64.011,64.011,0,0,1,86.406-75.778,7.963,7.963,0,0,0-.318,5.279L138.8,206.919A64.383,64.383,0,0,1,128,217.948ZM336,272a80,80,0,1,1-80-80A80.091,80.091,0,0,1,336,272ZM160,344a8.009,8.009,0,0,1-8-8V276.281l8.013-5.342c0,.354-.013.706-.013,1.061a95.458,95.458,0,0,0,8,38.345V344Zm25.692,111.8a8,8,0,0,1-10.782-3.428L160.2,423.953a8,8,0,0,1,3.427-10.783l22.629-11.711,24.216,41.513Zm89.713.2H236.6L184,365.837V335.423a95.854,95.854,0,0,0,144,0v30.414Zm72.968-42.83a8,8,0,0,1,3.428,10.782l-14.711,28.42a8,8,0,0,1-10.782,3.428l-24.78-12.828,24.216-41.513ZM360,276.281V344H344V310.345A95.458,95.458,0,0,0,352,272c0-.355-.01-.707-.013-1.061Zm-20.225-51.113a95.954,95.954,0,0,0-167.55,0l-13.5-6.75-29.1-101.841L168,100.133V144a8,8,0,0,0,8,8H336a8,8,0,0,0,8-8V100.133l38.372,16.444-29.1,101.841ZM373.2,206.919,399.692,114.2a7.963,7.963,0,0,0-.318-5.279A64,64,0,0,1,485.78,184.7C475.723,174.529,459.131,168,440,168c-31.4,0-56,17.57-56,40v9.948A64.383,64.383,0,0,1,373.2,206.919ZM440,192c-15.378,0-29.115,4.221-39.14,11.156C404.714,192.375,421.074,184,440,184s35.286,8.375,39.14,19.156C469.115,196.221,455.378,192,440,192Zm-40,40c0-7.659,6.353-14.616,16-19.045v38.09C406.353,246.616,400,239.659,400,232Zm32,23.494V208.506a63.494,63.494,0,0,1,16,0v46.988a63.494,63.494,0,0,1-16,0Zm32-4.449v-38.09c9.647,4.429,16,11.386,16,19.045S473.647,246.616,464,251.045Z" style="fill:url(#New_Gradient_Swatch_2-2)"/><rect x="224" y="384" width="64" height="16" style="fill:url(#New_Gradient_Swatch_2-3)"/><rect x="240" y="416" width="32" height="16" style="fill:url(#New_Gradient_Swatch_2-4)"/><rect x="328" y="176" width="16" height="16" style="fill:url(#New_Gradient_Swatch_2-5)"/><rect x="168" y="176" width="16" height="16" style="fill:url(#New_Gradient_Swatch_2-6)"/></svg>
