<svg id="GD001" height="512" viewBox="0 0 512 512" width="512" xmlns="http://www.w3.org/2000/svg" xmlns:xlink="http://www.w3.org/1999/xlink"><linearGradient id="New_Gradient_Swatch_2" gradientUnits="userSpaceOnUse" x1="247.27" x2="262.628" y1="-35.707" y2="256.098"><stop offset="0" stop-color="#fc5c7d"/><stop offset=".129" stop-color="#f35e85"/><stop offset=".343" stop-color="#d9659b"/><stop offset=".616" stop-color="#b070bf"/><stop offset=".934" stop-color="#777ff0"/><stop offset="1" stop-color="#6a82fb"/></linearGradient><linearGradient id="New_Gradient_Swatch_2-2" gradientTransform="matrix(.707 .707 -.707 .707 296.976 -7.113)" x1="136.821" x2="152.179" xlink:href="#New_Gradient_Swatch_2" y1="-29.894" y2="261.911"/><linearGradient id="New_Gradient_Swatch_2-3" gradientTransform="matrix(.707 .707 -.707 .707 244.256 -134.392)" x1="270.428" x2="285.786" xlink:href="#New_Gradient_Swatch_2" y1="-36.926" y2="254.879"/><path d="m493.657 18.343a8 8 0 0 0 -8.187-1.933 388.881 388.881 0 0 0 -151.226 93.462l-47.907 47.908-99.034 11a8 8 0 0 0 -6.272 4.373l-11.313 22.627a8 8 0 0 0 4.182 11.01l45.3 18.122-46.461 46.461-105.383 27.733a8.017 8.017 0 0 0 -3.621 2.08l-39.6 39.6a8 8 0 0 0 1.772 12.651l41.64 23.133-9.471 9.471a8 8 0 0 0 -2.343 5.657v19.312l-20.282 20.283a8 8 0 0 0 0 11.314l33.942 33.942a8 8 0 0 0 11.314 0l20.283-20.285h19.315a8 8 0 0 0 5.657-2.343l9.471-9.471 23.133 41.64a8 8 0 0 0 12.651 1.772l39.6-39.6a8.017 8.017 0 0 0 2.08-3.621l27.733-105.388 46.458-46.453 18.122 45.3a8 8 0 0 0 11.006 4.183l22.627-11.313a8 8 0 0 0 4.373-6.272l11-99.034 47.908-47.907a388.881 388.881 0 0 0 93.466-151.227 8 8 0 0 0 -1.933-8.187zm-169.7 124.45 11.312-11.312 45.255 45.255-11.312 11.312zm33.94 56.57-101.828 101.823-45.255-45.255 101.823-101.823zm-169.975-4.2 5.479-10.957 74.83-8.315-36.717 36.709zm-144.971 149.437 30.57-30.569 76.77-20.2-70.975 70.969zm32.1 114.98-22.629-22.63 11.314-11.313 22.627 22.627zm41.941-19.314h-16l-29.256-29.256v-16l127.764-127.765 45.255 45.255zm80.98-1.785-30.572 30.568-20.2-36.365 70.975-70.975zm129.822-119.881-10.957 5.479-17.44-43.6 36.712-36.712zm64.033-153.189-45.242-45.242a373.046 373.046 0 0 1 128.156-82.91 373.046 373.046 0 0 1 -82.914 128.156z" fill="url(#New_Gradient_Swatch_2)"/><path d="m89.075 346.925h135.999v16.001h-135.999z" fill="url(#New_Gradient_Swatch_2-2)" transform="matrix(.707 -.707 .707 .707 -204.964 215.024)"/><path d="m236.353 219.646h95.999v16.001h-95.999z" fill="url(#New_Gradient_Swatch_2-3)" transform="matrix(.707 -.707 .707 .707 -77.686 267.744)"/></svg>