<svg id="GD001" height="512" viewBox="0 0 512 512" width="512" xmlns="http://www.w3.org/2000/svg" xmlns:xlink="http://www.w3.org/1999/xlink"><linearGradient id="New_Gradient_Swatch_2" gradientUnits="userSpaceOnUse" x1="251.56" x2="261.799" y1="82.836" y2="482.149"><stop offset="0" stop-color="#fc5c7d"/><stop offset=".129" stop-color="#f35e85"/><stop offset=".343" stop-color="#d9659b"/><stop offset=".616" stop-color="#b070bf"/><stop offset=".934" stop-color="#777ff0"/><stop offset="1" stop-color="#6a82fb"/></linearGradient><linearGradient id="New_Gradient_Swatch_2-2" x1="406.313" x2="416.552" xlink:href="#New_Gradient_Swatch_2" y1="78.868" y2="478.181"/><linearGradient id="New_Gradient_Swatch_2-3" x1="140.651" x2="150.89" xlink:href="#New_Gradient_Swatch_2" y1="85.68" y2="484.993"/><linearGradient id="New_Gradient_Swatch_2-4" x1="128.138" x2="138.377" xlink:href="#New_Gradient_Swatch_2" y1="86.001" y2="485.313"/><linearGradient id="New_Gradient_Swatch_2-5" x1="257.812" x2="268.051" xlink:href="#New_Gradient_Swatch_2" y1="82.676" y2="481.988"/><linearGradient id="New_Gradient_Swatch_2-6" x1="156.955" x2="167.194" xlink:href="#New_Gradient_Swatch_2" y1="85.262" y2="484.574"/><linearGradient id="New_Gradient_Swatch_2-7" x1="358.771" x2="369.01" xlink:href="#New_Gradient_Swatch_2" y1="80.087" y2="479.4"/><linearGradient id="New_Gradient_Swatch_2-8" x1="275.339" x2="285.578" xlink:href="#New_Gradient_Swatch_2" y1="82.226" y2="481.539"/><linearGradient id="New_Gradient_Swatch_2-9" x1="420.269" x2="430.508" xlink:href="#New_Gradient_Swatch_2" y1="78.51" y2="477.823"/><linearGradient id="New_Gradient_Swatch_2-10" x1="343.397" x2="353.636" xlink:href="#New_Gradient_Swatch_2" y1="80.481" y2="479.794"/><linearGradient id="New_Gradient_Swatch_2-11" x1="69.116" x2="79.355" xlink:href="#New_Gradient_Swatch_2" y1="87.514" y2="486.827"/><path d="m425.706 86.3a240 240 0 1 0 -339.412 339.405 240 240 0 1 0 339.412-339.405zm-11.314 328.1a224 224 0 0 1 -316.784-316.792 224 224 0 0 1 316.784 316.784z" fill="url(#New_Gradient_Swatch_2)"/><path d="m428.4 288.685c-11.656-6.728-27.814.172-36.784 15.713a38.909 38.909 0 0 0 -5.482 21.555c.52 8.073 4.263 14.692 10.266 18.157a19.387 19.387 0 0 0 9.768 2.553 25.1 25.1 0 0 0 11.091-2.74 38.9 38.9 0 0 0 15.924-15.523c8.971-15.542 6.869-32.985-4.783-39.715zm-9.073 31.715a23.162 23.162 0 0 1 -9.162 9.183c-2.338 1.156-4.494 1.409-5.767.673s-2.131-2.727-2.3-5.33a23.16 23.16 0 0 1 3.372-12.526c4.041-7 9.682-10.281 13.109-10.281a3.626 3.626 0 0 1 1.819.424c2.825 1.629 3.811 9.396-1.071 17.857z" fill="url(#New_Gradient_Swatch_2-2)"/><path d="m165.369 370.632c-12.688-12.689-30.081-15.175-39.6-5.657s-7.031 26.91 5.656 39.6a38.913 38.913 0 0 0 19.4 10.875 27.47 27.47 0 0 0 5.387.547 20.565 20.565 0 0 0 14.809-5.764c4.9-4.9 6.805-12.263 5.218-20.2a38.908 38.908 0 0 0 -10.87-19.401zm-5.657 28.283c-1.039 1.039-3.187 1.356-5.745.842a23.155 23.155 0 0 1 -11.225-6.5c-6.906-6.9-7.963-14.663-5.657-16.97a4.913 4.913 0 0 1 3.5-1.1c3.506 0 8.694 1.978 13.474 6.758a23.163 23.163 0 0 1 6.5 11.226c.506 2.558.191 4.706-.847 5.744z" fill="url(#New_Gradient_Swatch_2-3)"/><path d="m88 152h40a8 8 0 0 0 7.428-5.029l15.39-38.475 22.839-22.839a8 8 0 0 0 1.932-3.127l5.334-16-15.179-5.06-4.736 14.209-22.665 22.664a8 8 0 0 0 -1.771 2.686l-13.989 34.971h-32.694l-6.311-3.155-7.156 14.31 8 4a7.994 7.994 0 0 0 3.578.845z" fill="url(#New_Gradient_Swatch_2-4)"/><path d="m334.624 55.328-15.944 1.344 1.21 14.359-30.581 91.744-85.6 54.476a8 8 0 0 0 -3.133 3.778l-16 40a8 8 0 0 0 1.024 7.771l24 32a8.018 8.018 0 0 0 1.75 1.71l53.883 38.49 14.216 42.647-21.349 49.816-60.484 18.9 4.772 15.272 64-20a8 8 0 0 0 4.967-4.485l24-56a8 8 0 0 0 .236-5.681l-16-48a8 8 0 0 0 -2.939-3.98l-54.993-39.28-20.559-27.409 13.372-33.432 85.828-54.619a8 8 0 0 0 3.294-4.219l32-96a8 8 0 0 0 .383-3.2z" fill="url(#New_Gradient_Swatch_2-5)"/><path d="m194.971 167.428a8.009 8.009 0 0 0 3.276-2.43l32-40a7.988 7.988 0 0 0 1.445-2.8l16-56a8 8 0 0 0 -.242-5.112l-6.259-16-14.9 5.83 5.275 13.484-14.817 51.858-29.678 37.1-38.042 15.217a8.007 8.007 0 0 0 -2.029 1.178l-40 32a8.012 8.012 0 0 0 -2.157 2.669l-32 64a7.994 7.994 0 0 0 -.843 3.578v72a8.026 8.026 0 0 0 .155 1.569l8 40 15.69-3.138-7.845-39.223v-69.319l30.37-60.74 37.7-30.162z" fill="url(#New_Gradient_Swatch_2-6)"/><path d="m352 120h16v16h-16z" fill="url(#New_Gradient_Swatch_2-7)"/><path d="m272 256h16v16h-16z" fill="url(#New_Gradient_Swatch_2-8)"/><path d="m416 216h16v16h-16z" fill="url(#New_Gradient_Swatch_2-9)"/><path d="m344 408h16v16h-16z" fill="url(#New_Gradient_Swatch_2-10)"/><path d="m64 192h16v16h-16z" fill="url(#New_Gradient_Swatch_2-11)"/></svg>