<?xml version="1.0"?>
<svg xmlns="http://www.w3.org/2000/svg" xmlns:xlink="http://www.w3.org/1999/xlink" id="GD001" viewBox="0 0 512 512" width="512" height="512"><defs><linearGradient id="New_Gradient_Swatch_2" x1="249.857" y1="-15.582" x2="260.096" y2="383.731" gradientUnits="userSpaceOnUse"><stop offset="0" stop-color="#fc5c7d"/><stop offset="0.129" stop-color="#f35e85"/><stop offset="0.343" stop-color="#d9659b"/><stop offset="0.616" stop-color="#b070bf"/><stop offset="0.934" stop-color="#777ff0"/><stop offset="1" stop-color="#6a82fb"/></linearGradient><linearGradient id="New_Gradient_Swatch_2-2" x1="397.027" y1="-19.356" x2="407.266" y2="379.957" xlink:href="#New_Gradient_Swatch_2"/><linearGradient id="New_Gradient_Swatch_2-3" x1="98.071" y1="-11.69" x2="108.31" y2="387.623" xlink:href="#New_Gradient_Swatch_2"/></defs><path d="M374.86,244.116A8.009,8.009,0,0,0,376,240V208a8,8,0,0,0-.663-3.189l-80-184A8,8,0,0,0,288,16H224a8,8,0,0,0-7.337,4.811l-80,184A8,8,0,0,0,136,208v32a8.009,8.009,0,0,0,1.14,4.116L208,362.217V432a32.036,32.036,0,0,0,32,32h32a32.036,32.036,0,0,0,32-32V362.217ZM222.754,46.93C229.692,57.961,241.343,64,256,64s26.308-6.039,33.246-17.07L355.8,200H156.2ZM233.407,32h45.186a28.288,28.288,0,0,1-1.956,4.828C272.707,44.346,265.956,48,256,48s-16.707-3.654-20.637-11.172A28.288,28.288,0,0,1,233.407,32ZM360,216v16H152V216Zm-6.129,32-62.4,104H220.529l-62.4-104ZM224,400h64v16H224Zm0-16V368h64v16Zm48,64H240a16.019,16.019,0,0,1-16-16h64A16.019,16.019,0,0,1,272,448Z" style="fill:url(#New_Gradient_Swatch_2)"/><path d="M495.337,236.811l-80-184A8,8,0,0,0,408,48H344a8,8,0,0,0-8,8,47.4,47.4,0,0,0,4.845,19.578C347.43,88.747,359.914,96,376,96c14.653,0,26.318-6.018,33.257-17.045L475.8,232H392v16h88v16H376v16h97.871l-62.4,104H340.529L328.46,363.884l-13.721,8.232L328,394.217V464a32.036,32.036,0,0,0,32,32h32a32.036,32.036,0,0,0,32-32V394.217l70.86-118.1A8.009,8.009,0,0,0,496,272V240A8,8,0,0,0,495.337,236.811Zm-98.7-167.983C392.707,76.346,385.956,80,376,80s-16.707-3.654-20.637-11.172A28.4,28.4,0,0,1,353.4,64H398.6A28.366,28.366,0,0,1,396.637,68.828ZM344,432h64v16H344Zm0-16V400h64v16Zm48,64H360a16.019,16.019,0,0,1-16-16h64A16.019,16.019,0,0,1,392,480Z" style="fill:url(#New_Gradient_Swatch_2-2)"/><path d="M183.54,363.884,171.471,384H100.529l-62.4-104H136V264H32V248h88V232H36.2L102.743,78.955C109.682,89.982,121.347,96,136,96c16.086,0,28.57-7.253,35.155-20.422A47.4,47.4,0,0,0,176,56a8,8,0,0,0-8-8H104a8,8,0,0,0-7.337,4.811l-80,184A8,8,0,0,0,16,240v32a8.009,8.009,0,0,0,1.14,4.116L88,394.217V464a32.036,32.036,0,0,0,32,32h32a32.036,32.036,0,0,0,32-32V394.217l13.261-22.1ZM158.6,64a28.366,28.366,0,0,1-1.96,4.828C152.707,76.346,145.956,80,136,80s-16.707-3.654-20.637-11.172A28.366,28.366,0,0,1,113.4,64ZM104,432h64v16H104Zm0-16V400h64v16Zm48,64H120a16.019,16.019,0,0,1-16-16h64A16.019,16.019,0,0,1,152,480Z" style="fill:url(#New_Gradient_Swatch_2-3)"/></svg>
