<?xml version="1.0"?>
<svg xmlns="http://www.w3.org/2000/svg" xmlns:xlink="http://www.w3.org/1999/xlink" id="GD001" viewBox="0 0 512 512" width="512" height="512"><defs><linearGradient id="New_Gradient_Swatch_2" x1="256" y1="-13.488" x2="256" y2="416.541" gradientUnits="userSpaceOnUse"><stop offset="0" stop-color="#fc5c7d"/><stop offset="0.129" stop-color="#f35e85"/><stop offset="0.343" stop-color="#d9659b"/><stop offset="0.616" stop-color="#b070bf"/><stop offset="0.934" stop-color="#777ff0"/><stop offset="1" stop-color="#6a82fb"/></linearGradient></defs><path d="M493.657,82.343,480,68.686V40a8,8,0,0,0-8-8h-8V16H448V32h-8a8,8,0,0,0-8,8V68.686L418.343,82.343A8,8,0,0,0,416,88V232.249l-16-.166V199.667a8,8,0,0,0-2.343-5.657l-22.863-22.863,28.284-28.284-11.313-11.314L363.48,159.833l-45.49-45.49A8,8,0,0,0,312.333,112H280V72H264v40H248V88H232v24H199.667a8,8,0,0,0-5.657,2.343l-22.863,22.863-28.284-28.284-11.314,11.314,28.284,28.284-11.314,11.314-16.97-16.971-11.313,11.313,16.97,16.971L114.343,194.01A8,8,0,0,0,112,199.667v32.582l-16-.166V88a8,8,0,0,0-2.343-5.657L80,68.686V40a8,8,0,0,0-8-8H64V16H48V32H40a8,8,0,0,0-8,8V68.686L18.343,82.343A8,8,0,0,0,16,88V424a8,8,0,0,0,2.343,5.657L32,443.314V472a8,8,0,0,0,8,8h8v16H64V480h8a8,8,0,0,0,8-8V443.314l13.657-13.657A8,8,0,0,0,96,424V280.084l16,.166v32.083a8,8,0,0,0,2.343,5.657l22.863,22.863-16.97,16.971,11.313,11.313,16.97-16.971,45.491,45.491A8,8,0,0,0,199.667,400H216v40h16V400h16v64h16V400h16v24h16V400h16.333a8,8,0,0,0,5.657-2.343l22.863-22.863,16.971,16.971,11.313-11.315-16.97-16.97,11.313-11.313,28.285,28.284,11.313-11.314-28.284-28.284,22.863-22.863A8,8,0,0,0,400,312.333V280.084l16,.166V424a8,8,0,0,0,2.343,5.657L432,443.314V472a8,8,0,0,0,8,8h8v16h16V480h8a8,8,0,0,0,8-8V443.314l13.657-13.657A8,8,0,0,0,496,424V88A8,8,0,0,0,493.657,82.343ZM464,48V64H448V48ZM443.314,80h25.372L480,91.313V120H464V104H448v16H432V91.313ZM456,152a8,8,0,0,0-8,8V352a8,8,0,0,0,8,8h24v16H432V136h48v16Zm24,16V344H464V168ZM304.072,227.43l-19.5-19.5,12.847-31.016,37.669,37.67ZM271.82,294.194H240.18L217.806,271.82V240.18l22.374-22.374h31.64l22.374,22.374v31.64Zm-2.031-92.388H242.211L229.364,170.79h53.272Zm-42.36,6.123-19.5,19.5-31.015-12.847,37.669-37.67Zm-25.623,34.282v27.578L170.79,282.636V229.364Zm6.122,42.359,19.5,19.5-12.847,31.016-37.669-37.67Zm34.283,25.624h27.578l12.847,31.016H229.364Zm42.36-6.123,19.5-19.5,31.015,12.847-37.669,37.67Zm25.623-34.282V242.211l31.016-12.847v53.272Zm40.893-61.834-47.041-47.042,11.1-26.79,62.735,62.735ZM289.263,154.79H222.737L211.64,128h88.72Zm-81.309,6.123-47.041,47.042-26.79-11.1,62.735-62.735ZM154.79,222.736v66.528L128,300.361V211.639Zm6.123,81.309,47.041,47.042-11.1,26.79-62.735-62.735Zm61.824,53.165h66.526L300.36,384H211.64Zm81.309-6.123,47.041-47.042,26.79,11.1-62.735,62.735Zm53.164-61.823V222.736l26.79-11.1v88.722ZM32,376V360H56a8,8,0,0,0,8-8V160a8,8,0,0,0-8-8H32V136H80V376Zm0-32V168H48V344ZM64,48V64H48V48ZM43.314,80H68.686L80,91.313V120H64V104H48v16H32V91.313ZM48,464V448H64v16Zm20.686-32H43.314L32,420.687V392H48v16H64V392H80v28.687ZM96,264.083v-16l16,.166v16Zm304,0v-16l16,.166v16ZM448,464V448h16v16Zm20.686-32H443.314L432,420.687V392h16v16h16V392h16v28.687Z" style="fill:url(#New_Gradient_Swatch_2)"/><rect x="248" y="248" width="16" height="16" style="fill:url(#New_Gradient_Swatch_2)"/></svg>
