<svg id="GD001" height="512" viewBox="0 0 512 512" width="512" xmlns="http://www.w3.org/2000/svg" xmlns:xlink="http://www.w3.org/1999/xlink"><linearGradient id="New_Gradient_Swatch_2" gradientUnits="userSpaceOnUse" x1="256" x2="256" y1="-13.488" y2="416.541"><stop offset="0" stop-color="#fc5c7d"/><stop offset=".129" stop-color="#f35e85"/><stop offset=".343" stop-color="#d9659b"/><stop offset=".616" stop-color="#b070bf"/><stop offset=".934" stop-color="#777ff0"/><stop offset="1" stop-color="#6a82fb"/></linearGradient><g fill="url(#New_Gradient_Swatch_2)"><path d="m93.942 323.554 2.876 1.327 7.337 36.688 15.69-3.138-5.051-25.254 48.084 22.193a26.159 26.159 0 1 0 21.925-47.5l-56.803-26.22v-105.65a8 8 0 0 0 -8-8h-8v-18a78.011 78.011 0 0 1 60.563-76.031l-4.523 45.231a8 8 0 0 0 7.96 8.8h160a8 8 0 0 0 7.96-8.8l-4.523-45.235a78.011 78.011 0 0 1 60.563 76.035v18h-8a8 8 0 0 0 -8 8v105.65l-56.8 26.217a26.16 26.16 0 1 0 21.926 47.5l48.084-22.193-5.051 25.254 15.69 3.138 7.337-36.688 2.876-1.327a24.072 24.072 0 0 0 13.938-21.788v-109.763a24.039 24.039 0 0 0 -16-22.624v-19.376a93.98 93.98 0 0 0 -79.82-92.917 39.865 39.865 0 0 0 -37.139-25.083h-86.082a39.865 39.865 0 0 0 -37.139 25.083 93.98 93.98 0 0 0 -79.82 92.917v19.376a24.039 24.039 0 0 0 -16 22.624v109.763a24.072 24.072 0 0 0 13.942 21.791zm314.058-139.554a8.009 8.009 0 0 1 8 8v32h-16v-40zm-8 98.89v-10.89h16v23.5zm16-26.89h-16v-16h16zm-25.1 40.089 17.9 14.111-13.684 6.316-17.9-14.115zm-12.083 27.954-11.837 5.463-17.9-14.115 11.837-5.463zm-36.4 16.8a10.16 10.16 0 0 1 -14.417-9.224 10.183 10.183 0 0 1 4.853-8.644l17.826 14.054zm-153.338-271.232a23.924 23.924 0 0 1 23.88-21.611h86.082a23.924 23.924 0 0 1 23.88 21.611l4.239 42.389h-142.32zm-77.079 186.389h-16v-16h16zm0 16v10.89l-16 12.615v-23.505zm21.184 52.043 17.9-14.115 11.837 5.463-17.9 14.115zm46.132 16.133a9.992 9.992 0 0 1 -9.733.667l-8.262-3.814 17.826-14.054a10.183 10.183 0 0 1 4.853 8.644 9.985 9.985 0 0 1 -4.684 8.557zm-44.53-37.776-17.9 14.115-13.686-6.315 17.9-14.115zm-30.786-118.4h8v40h-16v-32a8.009 8.009 0 0 1 8-8z"/><path d="m296 368v-65.65l67.353-31.086a8 8 0 0 0 4.647-7.264v-88a8 8 0 0 0 -10.353-7.646l-101.647 31.276-101.647-31.276a8 8 0 0 0 -10.353 7.646v88a8 8 0 0 0 4.647 7.264l67.353 31.086v65.65h16v-65.991l24-12.923 24 12.923v65.991zm48.483-178.855-13.816 27.633-38.154 6.36-7.8-15.6zm-117.195 18.391-7.8 15.6-38.154-6.36-13.816-27.633zm-67.288 51.345v-48.992l8.845 17.689a8 8 0 0 0 5.84 4.314l48 8a8.007 8.007 0 0 0 8.47-4.314l11.636-23.272 10.856 3.34a8.013 8.013 0 0 0 4.706 0l10.856-3.34 11.636 23.272a8.007 8.007 0 0 0 8.47 4.314l48-8a8 8 0 0 0 5.84-4.314l8.845-17.689v48.992l-63.725 29.411-24.275-13.071v-35.221h-16v35.221l-24.275 13.071z"/><path d="m461.291 379.039a32.044 32.044 0 0 0 -24.959-7.9l-180.332 20.808-180.332-20.807a32 32 0 0 0 -35.668 31.789v69.071h16v-55.024l199.083 22.971a7.959 7.959 0 0 0 1.834 0l199.083-22.971v55.024h16v-69.071a32.029 32.029 0 0 0 -10.709-23.89zm-205.291 44.908-199.86-23.061a15.983 15.983 0 0 1 17.694-13.852l181.249 20.913a7.922 7.922 0 0 0 1.834 0l181.249-20.913a15.983 15.983 0 0 1 17.694 13.852z"/><path d="m248 312h16v16h-16z"/><path d="m248 344h16v16h-16z"/><path d="m296 64h-80a8 8 0 0 0 -7.589 5.47l-8 24 15.178 5.06 6.177-18.53h68.468l6.177 18.53 15.178-5.06-8-24a8 8 0 0 0 -7.589-5.47z"/></g></svg>