<?xml version="1.0"?>
<svg xmlns="http://www.w3.org/2000/svg" xmlns:xlink="http://www.w3.org/1999/xlink" id="GD001" viewBox="0 0 512 512" width="512" height="512"><defs><linearGradient id="New_Gradient_Swatch_2" x1="256" y1="-13.488" x2="256" y2="416.541" gradientUnits="userSpaceOnUse"><stop offset="0" stop-color="#fc5c7d"/><stop offset="0.129" stop-color="#f35e85"/><stop offset="0.343" stop-color="#d9659b"/><stop offset="0.616" stop-color="#b070bf"/><stop offset="0.934" stop-color="#777ff0"/><stop offset="1" stop-color="#6a82fb"/></linearGradient></defs><path d="M490.127,296.288,424,278.048V264a24.032,24.032,0,0,0-20.966-23.8l4.556-13.668-15.18-5.06L386.233,240H376V224a8,8,0,0,0-6.324-7.822L328,207.247V181.714a8,8,0,0,0-6.324-7.822L288,166.676V140.494l40.884-4.543A8,8,0,0,0,336,128V96a8,8,0,0,0-7.116-7.951L312,86.173V64H296V84.4L264,80.84V64h16V48H232V64h16V80.84L216,84.4V64H200V86.173l-16.884,1.876A8,8,0,0,0,176,96v32a8,8,0,0,0,7.116,7.951L224,140.494v26.182l-33.676,7.216A8,8,0,0,0,184,181.714v25.533l-41.676,8.931A8,8,0,0,0,136,224v16H125.767l-6.177-18.53-15.18,5.06,4.556,13.668A24.032,24.032,0,0,0,88,264v14.048l-66.127,18.24A8,8,0,0,0,16,304v24a8,8,0,0,0,7.177,7.958L40,337.7v15.114l-7.147-.766A8,8,0,0,0,24,360v32a8,8,0,0,0,7.147,7.954l75.867,8.129L96.845,428.422l14.31,7.156L123.993,409.9l13.394,1.435-8.542,17.085,14.31,7.156,11.211-22.422L248,423.188V448h16V423.188l93.634-10.032,11.211,22.422,14.31-7.156-8.542-17.085,13.394-1.435,12.838,25.676,14.31-7.156-10.169-20.339,75.867-8.129A8,8,0,0,0,488,392V360a8,8,0,0,0-8.853-7.954l-7.147.766V337.7l16.823-1.74A8,8,0,0,0,496,328V304A8,8,0,0,0,490.127,296.288ZM391.59,274.53,397.767,256H400a8.009,8.009,0,0,1,8,8l.015,22.938H408l-48-6V264a8.009,8.009,0,0,1,8-8h12.9l-4.49,13.47ZM192,103.16l64-7.111,64,7.111v17.68l-64,7.111-64-7.111Zm48,39.111,15.116,1.68a8,8,0,0,0,1.768,0L272,142.271v20.976l-14.324-3.069a7.99,7.99,0,0,0-3.352,0L240,163.247Zm-40,45.911,56-12,56,12v15.637l-54.324-11.641a7.99,7.99,0,0,0-3.352,0L200,203.819Zm56,20,104,22.286v10.908a24.11,24.11,0,0,0-14.734,14.948l-87.139-24.036a7.978,7.978,0,0,0-4.254,0l-87.139,24.036A24.11,24.11,0,0,0,152,241.376V230.468Zm0,88.243,109.646,36.19L256,343.957,146.354,332.615ZM104,264a8.009,8.009,0,0,1,8-8h2.233l6.177,18.53,15.18-5.06L131.1,256H144a8.009,8.009,0,0,1,8,8v16.938l-48,6ZM32,310.092l57.749-15.93a15.957,15.957,0,0,0,16.235,8.652l48-6A16.023,16.023,0,0,0,168,280.938v-8.366l80-22.067v31.711L107.488,328.594,32,320.785Zm440,74.72L256,407.954,40,384.812V368.9l215.147,23.051a7.975,7.975,0,0,0,1.706,0L472,368.9Zm-16-30.286L256,375.954,56,354.526V339.354l199.177,20.6a8.084,8.084,0,0,0,1.646,0L456,339.354Zm24-33.741-75.488,7.809L264,282.216V250.505l80,22.067v8.366a16.023,16.023,0,0,0,14.016,15.876l48,6a15.9,15.9,0,0,0,16.235-8.652L480,310.092Z" style="fill:url(#New_Gradient_Swatch_2)"/><rect x="248" y="312" width="16" height="16" style="fill:url(#New_Gradient_Swatch_2)"/></svg>
