<svg id="GD001" height="512" viewBox="0 0 512 512" width="512" xmlns="http://www.w3.org/2000/svg" xmlns:xlink="http://www.w3.org/1999/xlink"><linearGradient id="New_Gradient_Swatch_2" gradientTransform="matrix(.707 .707 -.707 .707 109.657 -40.735)" gradientUnits="userSpaceOnUse" x1="104" x2="104" y1="-13.488" y2="416.541"><stop offset="0" stop-color="#fc5c7d"/><stop offset=".129" stop-color="#f35e85"/><stop offset=".343" stop-color="#d9659b"/><stop offset=".616" stop-color="#b070bf"/><stop offset=".934" stop-color="#777ff0"/><stop offset="1" stop-color="#6a82fb"/></linearGradient><linearGradient id="New_Gradient_Swatch_2-2" gradientTransform="matrix(.707 .707 -.707 .707 313.304 43.618)" x1="104" x2="104" xlink:href="#New_Gradient_Swatch_2" y1="-13.488" y2="416.541"/><linearGradient id="New_Gradient_Swatch_2-3" x1="132" x2="132" xlink:href="#New_Gradient_Swatch_2" y1="-13.488" y2="416.541"/><linearGradient id="New_Gradient_Swatch_2-4" x1="380" x2="380" xlink:href="#New_Gradient_Swatch_2" y1="-13.488" y2="416.541"/><linearGradient id="New_Gradient_Swatch_2-5" gradientTransform="matrix(.707 .707 -.707 .707 198.696 -255.696)" x1="408" x2="408" xlink:href="#New_Gradient_Swatch_2" y1="-13.488" y2="416.541"/><linearGradient id="New_Gradient_Swatch_2-6" gradientTransform="matrix(.707 .707 -.707 .707 402.343 -171.342)" x1="408" x2="408" xlink:href="#New_Gradient_Swatch_2" y1="-13.488" y2="416.541"/><linearGradient id="New_Gradient_Swatch_2-7" x1="256" x2="256" xlink:href="#New_Gradient_Swatch_2" y1="-13.488" y2="416.541"/><linearGradient id="New_Gradient_Swatch_2-8" x1="253.502" x2="253.502" xlink:href="#New_Gradient_Swatch_2" y1="-13.488" y2="416.541"/><path d="m81.373 103.999h45.255v16.001h-45.255z" fill="url(#New_Gradient_Swatch_2)" transform="matrix(.707 -.707 .707 .707 -48.735 106.343)"/><path d="m95.999 377.373h16.001v45.255h-16.001z" fill="url(#New_Gradient_Swatch_2-2)" transform="matrix(.707 -.707 .707 .707 -252.382 190.696)"/><path d="m240.753 415.272a160 160 0 0 1 0-318.544 8 8 0 0 0 7.247-7.965v-64.763a8 8 0 0 0 -8-8h-40a8 8 0 0 0 -7.761 6.06l-6.711 26.84-11.27 1.734-15.1-30.212a8 8 0 0 0 -10.127-3.851l-40 16a8 8 0 0 0 -5.031 7.429v21.444l-17.217 2.649a8 8 0 0 0 -4.44 2.25l-10.343 10.343-18.343-18.343-11.314 11.314 18.343 18.343-10.343 10.343a8 8 0 0 0 -2.343 5.657v48h-16v16h16v16h-8a24.028 24.028 0 0 0 -24 24v96a24.028 24.028 0 0 0 24 24h8v16h-16v16h16v48a8 8 0 0 0 2.343 5.657l10.343 10.343-18.343 18.343 11.314 11.314 18.343-18.343 10.343 10.343a8 8 0 0 0 4.44 2.25l17.217 2.649v21.444a8 8 0 0 0 5.029 7.428l40 16a7.993 7.993 0 0 0 10.127-3.851l15.1-30.212 11.27 1.734 6.711 26.841a8 8 0 0 0 7.763 6.06h40a8 8 0 0 0 8-8v-64.763a8 8 0 0 0 -7.247-7.965zm-120.753-369.856 28.136-11.254 9.511 19.029-37.647 5.791zm-80 266.584a8.009 8.009 0 0 1 -8-8v-96a8.009 8.009 0 0 1 8-8h8v112zm108.136 165.838-28.136-11.254v-13.566l37.647 5.791zm83.864 2.162h-25.754l-6.485-25.94a8 8 0 0 0 -6.544-5.967l-101.412-15.6-27.805-27.806v-297.374l27.805-27.8 101.412-15.6a8 8 0 0 0 6.544-5.967l6.485-25.946h25.754v49.635a176.012 176.012 0 0 0 0 348.73z" fill="url(#New_Gradient_Swatch_2-3)"/><path d="m472 184h-8v-16h16v-16h-16v-48a8 8 0 0 0 -2.343-5.657l-10.343-10.343 18.343-18.343-11.314-11.314-18.343 18.343-10.343-10.343a8 8 0 0 0 -4.44-2.25l-17.217-2.649v-21.444a8 8 0 0 0 -5.029-7.428l-40-16a8 8 0 0 0 -10.127 3.851l-15.1 30.212-11.272-1.735-6.711-26.84a8 8 0 0 0 -7.761-6.06h-40a8 8 0 0 0 -8 8v64.763a8 8 0 0 0 7.247 7.965 160 160 0 0 1 0 318.544 8 8 0 0 0 -7.247 7.965v64.763a8 8 0 0 0 8 8h40a8 8 0 0 0 7.761-6.06l6.711-26.841 11.27-1.734 15.1 30.212a7.993 7.993 0 0 0 10.127 3.851l40-16a8 8 0 0 0 5.031-7.428v-21.444l17.217-2.649a8 8 0 0 0 4.44-2.25l10.343-10.343 18.343 18.343 11.314-11.314-18.343-18.343 10.343-10.343a8 8 0 0 0 2.343-5.657v-48h16v-16h-16v-16h8a24.028 24.028 0 0 0 24-24v-96a24.028 24.028 0 0 0 -24-24zm-108.136-149.838 28.136 11.254v13.566l-37.647-5.791zm28.136 432.422-28.136 11.254-9.511-19.029 37.647-5.791zm28.2-34.093-101.412 15.6a8 8 0 0 0 -6.544 5.967l-6.49 25.942h-25.754v-49.635a176.012 176.012 0 0 0 0-348.73v-49.635h25.754l6.485 25.94a8 8 0 0 0 6.544 5.967l101.417 15.602 27.8 27.804v297.374zm59.8-128.491a8.009 8.009 0 0 1 -8 8h-8v-112h8a8.009 8.009 0 0 1 8 8z" fill="url(#New_Gradient_Swatch_2-4)"/><path d="m399.999 89.373h16.001v45.255h-16.001z" fill="url(#New_Gradient_Swatch_2-5)" transform="matrix(.707 -.707 .707 .707 40.304 321.304)"/><path d="m385.373 391.999h45.255v16.001h-45.255z" fill="url(#New_Gradient_Swatch_2-6)" transform="matrix(.707 -.707 .707 .707 -163.342 405.657)"/><path d="m306.162 377.1c5.153-2.137 11.192-3.421 17.587-4.782 12.225-2.6 24.864-5.289 34.074-14.5s11.9-21.851 14.5-34.076c1.361-6.394 2.645-12.433 4.782-17.586 2-4.827 5.274-9.8 8.738-15.058 6.636-10.073 14.157-21.498 14.157-35.098s-7.521-25.025-14.158-35.1c-3.464-5.261-6.737-10.231-8.738-15.058-2.137-5.153-3.421-11.192-4.782-17.587-2.6-12.225-5.289-24.864-14.5-34.074s-21.851-11.9-34.076-14.5c-6.394-1.361-12.433-2.645-17.586-4.782-4.827-2-9.8-5.274-15.058-8.738-10.077-6.64-21.502-14.161-35.102-14.161s-25.025 7.521-35.1 14.158c-5.261 3.464-10.231 6.737-15.058 8.738-5.153 2.137-11.192 3.421-17.587 4.782-12.225 2.6-24.864 5.289-34.074 14.5s-11.9 21.851-14.5 34.076c-1.361 6.394-2.645 12.433-4.782 17.586-2 4.827-5.274 9.8-8.738 15.058-6.64 10.077-14.161 21.502-14.161 35.102s7.521 25.025 14.158 35.1c3.464 5.261 6.737 10.231 8.738 15.058 2.137 5.153 3.421 11.192 4.782 17.587 2.6 12.225 5.289 24.864 14.5 34.074s21.851 11.9 34.076 14.5c6.394 1.361 12.433 2.645 17.586 4.782 4.827 2 9.8 5.274 15.058 8.738 10.077 6.64 21.502 14.161 35.102 14.161s25.025-7.521 35.1-14.158c5.265-3.464 10.235-6.737 15.062-8.742zm-50.162 6.9c-8.808 0-17.307-5.6-26.306-11.521-5.652-3.723-11.5-7.572-17.727-10.155-6.513-2.7-13.566-4.2-20.386-5.651-10.4-2.214-20.231-4.3-26.091-10.164s-7.949-15.686-10.162-26.089c-1.451-6.82-2.951-13.873-5.652-20.387-2.583-6.229-6.432-12.075-10.155-17.727-5.921-8.999-11.521-17.498-11.521-26.306s5.6-17.307 11.521-26.306c3.723-5.652 7.572-11.5 10.155-17.727 2.7-6.513 4.2-13.566 5.651-20.386 2.214-10.4 4.3-20.231 10.164-26.091s15.686-7.949 26.089-10.162c6.82-1.451 13.873-2.951 20.387-5.652 6.229-2.583 12.075-6.432 17.727-10.155 8.999-5.921 17.498-11.521 26.306-11.521s17.307 5.6 26.306 11.521c5.652 3.723 11.5 7.572 17.727 10.155 6.513 2.7 13.566 4.2 20.386 5.651 10.4 2.214 20.231 4.3 26.091 10.164s7.949 15.686 10.162 26.089c1.451 6.82 2.951 13.873 5.652 20.387 2.583 6.229 6.432 12.075 10.155 17.727 5.921 8.999 11.521 17.498 11.521 26.306s-5.6 17.307-11.521 26.306c-3.723 5.652-7.572 11.5-10.155 17.727-2.7 6.513-4.2 13.566-5.651 20.386-2.214 10.4-4.3 20.231-10.164 26.091s-15.686 7.949-26.089 10.162c-6.82 1.451-13.873 2.951-20.387 5.652-6.229 2.583-12.075 6.432-17.727 10.155-8.999 5.921-17.498 11.521-26.306 11.521z" fill="url(#New_Gradient_Swatch_2-7)"/><path d="m318.688 182.726c-17.93-17.93-39.786-25.543-63.2-22.009-20.774 3.134-41.8 14.837-60.811 33.845-18.973 18.972-30.58 39.919-33.569 60.576-3.354 23.184 4.357 44.924 22.3 62.867a95.657 95.657 0 0 0 135.28-135.279zm-123.964 123.964c-14.438-14.437-20.419-31.011-17.779-49.261 2.491-17.214 12.534-35.04 29.048-51.553 16.573-16.573 34.515-26.718 51.884-29.338a58.667 58.667 0 0 1 8.753-.671c14.988 0 28.661 6.09 40.744 18.173a79.656 79.656 0 1 1 -112.65 112.65z" fill="url(#New_Gradient_Swatch_2-8)"/><g fill="url(#New_Gradient_Swatch_2-7)"><path d="m248 248h16v16h-16z"/><path d="m290.742 215.217c-8.784-6.357-20.8-9.717-34.742-9.717a50.557 50.557 0 0 0 -50.5 50.5c0 13.944 3.36 25.958 9.717 34.742 7.461 10.309 18.624 15.758 32.283 15.758 13.293 0 27.857-6.94 39.959-19.041s19.041-26.666 19.041-39.959c0-13.659-5.449-24.822-15.758-32.283zm-43.242 75.283c-23.467 0-26-24.127-26-34.5a34.54 34.54 0 0 1 34.5-34.5c10.373 0 34.5 2.533 34.5 26 0 18.888-24.112 43-43 43z"/></g></svg>